<?xml version="1.0" encoding="UTF-8"?>
<svg id="Layer_2" data-name="Layer 2" xmlns="http://www.w3.org/2000/svg" viewBox="0 0 111 110.99">
  <defs>
    <style>
      .cls-1 {
        fill: #fff;
      }
    </style>
  </defs>
  <g id="Layer_1-2" data-name="Layer 1">
    <path class="cls-1" d="M99.61,11.38C90.52,1.83,73.07.26,55.57,0h-.12C37.94.26,20.49,1.83,11.39,11.38,1.84,20.48.27,37.93.01,55.44v.05s0,.07,0,.07c.26,17.5,1.83,34.96,11.38,44.05,9.1,9.56,26.55,11.12,44.06,11.39h.12c17.5-.27,34.96-1.83,44.05-11.39,9.55-9.09,11.12-26.55,11.39-44.05v-.12c-.27-17.51-1.83-34.96-11.39-44.06ZM32.87,32.3l13.56,11.71-5.06,5.85-13.56-11.71,5.06-5.85ZM51.85,85.28h-12.04v-12.76c-8.13-2.83-15.37-8.19-20.45-15.2l-.61-.82,8.19-9.55.93,1.48c4.77,7.67,12.59,12.8,21.48,14.08.43.07.88.12,1.32.16l1.17.11v22.51ZM47.46,43.35l-5.07-17.19,7.42-2.19,5.07,17.19-7.42,2.19ZM83.2,38.13l-13.51,11.75-5.08-5.84,13.52-11.75,5.07,5.84ZM61.15,23.99l7.43,2.17-5.02,17.2-7.43-2.18,5.02-17.19ZM91.65,57.31c-5.09,7.01-12.32,12.37-20.45,15.2v12.76h-12.04v-22.51l1.17-.11c.43-.04.88-.1,1.31-.16,8.89-1.28,16.71-6.4,21.48-14.08l.93-1.48,8.19,9.55-.6.82Z"/>
  </g>
</svg>