<?xml version="1.0" encoding="UTF-8"?>
<svg id="Layer_2" data-name="Layer 2" xmlns="http://www.w3.org/2000/svg" viewBox="0 0 291.56 159.85">
  <defs>
    <style>
      .cls-1 {
        fill: #65c8d6;
      }

      .cls-2 {
        fill: #5252a2;
      }
    </style>
  </defs>
  <g id="Layer_1-2" data-name="Layer 1">
    <g>
      <g>
        <path class="cls-2" d="M241.22,113.47c2.16,0,3.77-.48,4.83-1.44,1.06-.95,1.59-2.5,1.59-4.61s-.54-3.67-1.62-4.67c-1.08-1.01-2.68-1.5-4.79-1.5-4.31,0-6.47,2.05-6.47,6.17,0,2.12.53,3.66,1.59,4.61,1.06.96,2.69,1.44,4.88,1.44Z"/>
        <rect class="cls-2" x="234.52" y="119.03" width="13.27" height="39.67"/>
        <path class="cls-2" d="M291.56,158.7l-11.12-17.7c7.54-6.56,9.61-17.56,10.15-21.96h-11.77c-.63,3.75-2.37,10.69-6.83,13.78l-7.76-13.78h-13.63l11.29,19.34c-7.43,6.41-10.01,16.59-10.73,20.32h11.96c.98-3.58,3.19-9.48,7.56-12.38l6.61,12.38h14.28Z"/>
        <path class="cls-2" d="M119.4,117.88c-3.4,0-6.38.4-8.99,1.17v-19.2h-12.86v39.21s-.01.01-.01.02c0,2.32.21,4.41.59,6.33l.03.25h.02c.81,3.88,2.4,6.95,4.8,9.17,3.63,3.34,9.1,5.02,16.4,5.02s12.77-1.67,16.4-5.02c3.63-3.33,5.44-8.58,5.44-15.75,0-14.14-7.28-21.21-21.84-21.21ZM127.17,146.99c-1.67,1.97-4.27,2.94-7.78,2.94s-6.03-.96-7.74-2.9c-1.69-1.93-2.54-4.54-2.54-7.82s.8-6,2.41-8.17c1.61-2.16,4.23-3.25,7.86-3.25s6.25,1.07,7.86,3.21c1.61,2.14,2.41,4.85,2.41,8.13s-.84,5.91-2.5,7.86Z"/>
        <path class="cls-2" d="M78.5,119.04v20.04c0,2.69-.73,4.84-2.19,6.46-1.46,1.61-3.74,2.41-6.81,2.41s-5.28-.79-6.77-2.38c-1.48-1.59-2.22-3.73-2.22-6.41v-20.12h0s-12.86,0-12.86,0v20.05c0,6.85,1.66,11.95,4.98,15.29.15.16.31.31.47.46,3.63,3.34,9.09,5.02,16.4,5.02s12.77-1.67,16.4-5.02c.16-.15.32-.3.47-.46,3.32-3.34,4.97-8.45,4.97-15.29v-20.05h-12.85Z"/>
        <path class="cls-2" d="M38.25,122.91c-3.63-3.34-9.09-5.02-16.4-5.02s-12.77,1.67-16.4,5.02c-.16.15-.32.3-.47.46-3.32,3.34-4.97,8.45-4.97,15.29v20.05h12.85v-20.05c0-2.69.73-4.84,2.19-6.46,1.46-1.61,3.74-2.41,6.81-2.41s5.28.79,6.77,2.38c1.48,1.59,2.22,3.73,2.22,6.41v20.12h0s12.86,0,12.86,0v-20.05c0-6.85-1.66-11.95-4.98-15.29-.15-.16-.31-.31-.47-.46Z"/>
        <path class="cls-2" d="M226.01,122.8c-3.63-3.34-9.09-5.02-16.4-5.02s-12.77,1.67-16.4,5.02c-.16.15-.32.3-.47.46-3.32,3.34-4.97,8.45-4.97,15.29v20.05h12.85v-20.05c0-2.69.73-4.84,2.19-6.46,1.46-1.61,3.74-2.41,6.81-2.41s5.28.79,6.77,2.38c1.48,1.59,2.22,3.73,2.22,6.41v20.12h0s12.86,0,12.86,0v-20.05c0-6.85-1.66-11.95-4.98-15.29-.15-.16-.31-.31-.47-.46Z"/>
        <path class="cls-2" d="M179.12,123.08c-3.51-3.46-8.49-5.19-14.93-5.19s-11.73,1.76-15.28,5.29c-3.44,3.42-5.22,8.54-5.32,15.35-.01.23-.01.47-.01.7,0,2.03.15,3.92.46,5.65,1.77,9.99,8.6,14.98,20.52,14.98,5.54,0,9.97-1.22,13.3-3.64,3.34-2.42,5.34-6.2,6.02-11.33v-.02h-10.89s-.01.01-.01.02c-.24.39-.52.77-.81,1.12-1.67,1.96-4.27,2.94-7.78,2.94s-6.03-.97-7.74-2.9c-.32-.36-.6-.75-.86-1.16-.65-1.03-1.1-2.2-1.38-3.52h29.97v-3.21c0-1.09-.05-2.14-.15-3.14-.49-5.06-2.19-9.04-5.11-11.93ZM154.54,134.32c.39-1.57,1.03-2.95,1.93-4.17,1.59-2.13,4.15-3.19,7.72-3.19s6.13,1.05,7.72,3.14c.91,1.22,1.56,2.62,1.94,4.21h-19.29Z"/>
      </g>
      <path class="cls-1" d="M178.96,8.56C172.12,1.38,158.99.2,145.83,0h-.09c-13.17.2-26.29,1.38-33.14,8.56-7.18,6.85-8.36,19.97-8.56,33.14v.04s0,.05,0,.05c.2,13.16,1.38,26.29,8.56,33.13,6.85,7.19,19.97,8.36,33.14,8.57h.09c13.16-.2,26.29-1.38,33.13-8.57,7.18-6.84,8.36-19.97,8.57-33.13v-.09c-.2-13.17-1.38-26.29-8.57-33.14ZM128.75,24.29l10.2,8.81-3.81,4.4-10.2-8.81,3.81-4.4ZM143.03,64.14h-9.05v-9.6c-6.11-2.13-11.56-6.16-15.38-11.43l-.46-.62,6.16-7.18.7,1.12c3.59,5.77,9.47,9.63,16.15,10.59.33.05.66.09.99.12l.88.08v16.93ZM139.73,32.61l-3.81-12.93,5.58-1.65,3.81,12.93-5.58,1.65ZM166.61,28.68l-10.16,8.83-3.82-4.39,10.17-8.83,3.81,4.39ZM150.03,18.04l5.59,1.63-3.77,12.93-5.59-1.64,3.77-12.93ZM172.97,43.1c-3.83,5.27-9.27,9.31-15.38,11.43v9.6h-9.05v-16.93l.88-.08c.33-.03.66-.07.99-.12,6.68-.96,12.57-4.82,16.15-10.59l.7-1.12,6.16,7.18-.45.62Z"/>
    </g>
  </g>
</svg>