<?xml version="1.0" encoding="UTF-8"?>
<svg id="Layer_2" data-name="Layer 2" xmlns="http://www.w3.org/2000/svg" viewBox="0 0 742.55 654.98">
  <defs>
    <style>
      .cls-1 {
        fill: #e5e7e2;
      }

      .cls-2 {
        fill: #8b5adb;
      }

      .cls-3 {
        fill: #a8a8ce;
      }

      .cls-4 {
        fill: #1d1d1b;
      }

      .cls-5 {
        fill: #261e2c;
      }

      .cls-6 {
        fill: #ccc;
      }

      .cls-7 {
        fill: #f8f6f1;
      }

      .cls-8 {
        fill: none;
        stroke-linecap: round;
        stroke-width: 1.96px;
      }

      .cls-8, .cls-9 {
        stroke: #1d1d1b;
        stroke-miterlimit: 10;
      }

      .cls-10, .cls-9 {
        fill: #fff;
      }

      .cls-11 {
        fill: #251f2d;
      }

      .cls-12 {
        fill: #6b6a6a;
      }

      .cls-13 {
        fill: #afafaf;
      }

      .cls-9 {
        stroke-width: 2.14px;
      }
    </style>
  </defs>
  <g id="Layer_1-2" data-name="Layer 1">
    <g>
      <g>
        <polygon class="cls-1" points="742.55 315.36 742.55 594.39 568.16 594.39 567.11 592.62 534.2 536.56 534.2 359.42 245.07 359.42 245.07 532.89 209.06 590.86 207.44 593.47 25.15 593.47 26.61 358.5 26.62 357.58 0 357.58 0 339.23 67.92 293.33 711.34 293.33 742.55 315.36"/>
        <polygon class="cls-7" points="742.55 315.36 742.55 339.23 0 339.23 67.92 293.33 711.34 293.33 742.55 315.36"/>
        <polygon class="cls-7" points="742.55 357.58 742.55 594.39 568.16 594.39 567.11 592.62 567.11 357.58 742.55 357.58"/>
        <polygon class="cls-7" points="209.43 357.56 209.43 590.85 207.8 593.47 24.79 593.47 26.25 357.56 209.43 357.56"/>
        <g>
          <g>
            <polygon class="cls-5" points="678.06 396.65 638.17 396.65 624.78 385.94 693.86 385.94 678.06 396.65"/>
            <polygon class="cls-5" points="678.06 442.43 638.17 442.43 624.78 431.72 693.86 431.72 678.06 442.43"/>
            <polygon class="cls-5" points="678.06 489.01 638.17 489.01 624.78 478.3 693.86 478.3 678.06 489.01"/>
            <polygon class="cls-5" points="678.06 539.61 638.17 539.61 624.78 528.9 693.86 528.9 678.06 539.61"/>
          </g>
          <g>
            <polygon class="cls-5" points="141.18 396.63 101.29 396.63 87.9 385.92 156.98 385.92 141.18 396.63"/>
            <polygon class="cls-5" points="141.18 442.41 101.29 442.41 87.9 431.7 156.98 431.7 141.18 442.41"/>
            <polygon class="cls-5" points="141.18 489 101.29 489 87.9 478.29 156.98 478.29 141.18 489"/>
            <polygon class="cls-5" points="141.18 539.6 101.29 539.6 87.9 528.89 156.98 528.89 141.18 539.6"/>
          </g>
        </g>
      </g>
      <g>
        <path class="cls-10" d="M58.61,563.17c.86,12.08-1.12,31.06,6.41,41.29,4.28,5.82,16.6,11.97,21.88,3.73,1.88-2.94,1.54-6.72,1.13-10.19-1.7-14.4-3.41-28.8-5.11-43.2-.64-5.39-.47-9.35-5.48-12.29-4.52-2.65-10.41-2.55-14.38,1.15-5.05,4.71-4.93,12.61-4.44,19.5Z"/>
        <path class="cls-10" d="M240.21,433.96c.32,13,.64,26.01.96,39.01.11,4.36.47,9.28,3.81,12.09,3.96,3.32,10.55,1.47,14.14-1.66,3.88-3.38,4.34-9.08,5.28-13.94,2.72-14.09,3.04-28.63.92-42.82-4.87-1.95-9.2-4.03-14.15-2.31-4.95,1.71-8.34,5.09-10.97,9.63Z"/>
        <path class="cls-12" d="M229.13,381.54c4.37,15.86,4.02,32.42,4.4,48.72.04,1.64.09,3.33.78,4.81,1.04,2.22,3.4,3.6,5.81,4.08,10.67,2.14,22.2,2.44,33.11,3.47-.06-1-.12-2-.18-2.99-2.81-45.46-7.97-89.18-18.22-133.56-21.82-14.99-44.69-29.08-70.62-34.39-13.47-2.76-27.36-2.68-41.1-2.18-18.84.68-38.09,2.24-55.35,9.85-17.25,7.61-39.55,20.39-38.43,39.21,1.2,20.21,2.41,40.43,3.61,60.64.94,15.86,1.89,31.73,2.08,47.62.5,42.51-4.4,84.92-4.78,127.43,14.06,1.62,28.12,3.24,42.18,4.87-2.95-76.49,18.63-153.73,60.79-217.62,10.03-.05,19.83.48,29.7-.46,7.49-.71,15.07,1.33,21.47,5.19,12.59,7.58,20.98,21.54,24.77,35.3Z"/>
        <path class="cls-13" d="M100.72,310.29c.67,1.88,19.78-2.28,21.86-2.79,7.15-1.75,14.1-4.3,20.69-7.6,6.69-3.35,13.57-7.12,18.9-12.47,6.29-6.32,4.83-15.77,4.28-24.14-1-15.1-1.99-30.21-2.99-45.31-1.65-25.02-3.3-50.06-6.68-74.9-1.28-9.42-3.73-23.9-13.51-28.54-5.58-2.65-14.61-.97-20.83-.97-7.96,0-15.92,0-23.88.01.28,6.45-1.86,11.69-1.58,18.14.59,13.83,1.18,27.67,1.21,41.51.02,10.33-.68,20.62-.89,30.94-.19,9.22-2.42,17.61-3.77,26.79-3.84,26.08-1.74,54.41,7.21,79.32Z"/>
        <path class="cls-6" d="M152.78,237.02c-.33-8.1-.89-16.07-1.12-24.22-.13-4.53-1-8.88-1.52-13.39-1.08-9.39-1.24-18.86-1.4-28.31-.3-17.64-.6-35.28-.9-52.91-4.38-1.43-7.89-1.37-12.43-.48-5.8,1.14-11.77,1.38-17.65.75-5.67-.61-10.92-2.58-16.49-3.46.27.04-1.24,61.32-1.17,66.97.29,21.44.39,43.15,4.21,64.18.08.41.15.83.23,1.24,1.31,7.01,2.91,13.96,4.77,20.84.85,3.14,13.38,36.19,13.89,35.82-25.75,18.6-61.04,23.12-90.65,11.63.47-9.46,1.95-18.86,4.41-28.01,1.08-4.04,2.82-7.86,3.9-11.83,1.27-4.63,1.72-9.68,2.17-14.46,0-.04,0-.08.01-.12,1.82-19.33-.18-38.75-2.19-57.98-1.49-14.28-4.72-29.45-4.56-43.77.15-13.09,10.07-24.1,20.2-31.24,6.52-4.6,13.63-8.34,21.1-11.16s15.32-3.75,23.16-5.6c16.56-3.91,34.59-3.38,51.32-.4,6.11,1.09,12.22,2.59,17.74,5.41,5.7,2.91,9.78,7.01,13.17,12.34,3.36,5.27,3.89,11.25,4.79,17.34,5.8,39.29,9.6,78.87,11.37,118.55.15,3.39.22,7.04-1.69,9.84-2.32,3.4-6.85,4.5-10.97,4.53-12.78.09-25.23-8.16-30.12-19.97-2.88-6.95-3.25-14.64-3.58-22.15Z"/>
        <g>
          <path class="cls-10" d="M178.71,244.52c-4.69,21.6-15.47,41.94-30.85,58.2-2.4,2.53-5.02,5.18-5.66,8.57-.91,4.78,2.79,9.62,7.53,11.09s10.05.05,14.16-2.71c4.11-2.76,7.19-6.73,9.96-10.77,12.15-17.74,19.63-38.48,21.55-59.69.35-3.86.86-2.84.17-6.65-.69-3.81-3.53-7.52-7.47-8.01-3.5-.43-8.66,6.62-9.39,9.99Z"/>
          <path class="cls-10" d="M100.62,336.95c3.48,2.78,7.25,5.42,11.61,6.52,4.36,1.11,9.44.4,12.57-2.75,4.91-4.96,2.88-13.57-1.89-18.65s-11.49-7.92-17.26-11.9c-10.53-7.26-17.83-18.5-21.33-30.6-2.66-9.2-3.23-18.85-5.25-28.21-1.4-6.5-4.88-14.03-11.66-14.69-19.2-1.86-8.27,26.34-6.61,34.74,3.21,16.21,10.15,31.7,20.09,45.07,5.65,7.6,12.28,14.52,19.74,20.47Z"/>
          <path class="cls-13" d="M81.7,257.08c-8.9,7.92-20.64,12.64-32.65,13.47-5.01.35-10.07.02-14.99-1.04-5.33-28.18-5.76-58.13-3.86-86.73.64-9.71,1.49-20.02,5.05-29.2,1.43-3.68,3.24-7.62,5.05-11.18,1.98-3.89,4.64-7.45,7.85-10.47,2.71-2.54,6.06-4.79,9.82-4.88,6.89-.17,7.97,6.7,9.55,11.69,2.04,6.47,3.85,13.01,5.42,19.6,7.73,32.28,10.09,65.67,8.75,98.74Z"/>
          <path class="cls-13" d="M178.15,119.21c-3.09-.82-6.62-.63-9.2,1.23-2.47,1.78-3.69,4.84-3.93,7.82-.24,2.98.39,5.95.96,8.89,5.26,26.86,6.61,54.47,4,81.74-.55,5.79-1.22,11.94,1.48,17.11,3.2,6.14,10.25,9.23,16.78,11.87,2.64,1.07,5.33,2.15,8.17,2.47s5.92-.21,8.09-2.04c2.37-2,3.28-5.14,3.98-8.1,5.13-21.65,5.29-44.34.74-66.06-2.21-10.58-5.15-22.24-10.44-31.8-5.49-9.93-8.45-19.9-20.63-23.12Z"/>
        </g>
        <g>
          <path class="cls-10" d="M151.43,112.87c0,5.91-12.22,10.71-27.29,10.71s-26.77-4.59-27.27-10.33l9.25-2.29v-34.76l32.01,22.89v10.12l12.9,1.99c.26.49.4,1.04.4,1.67Z"/>
          <path class="cls-4" d="M138.13,99.09v9.01c-19.01,2.79-29.23-22.28-32.01-30.38v-1.52l6.23,7.53,16.86,11.35,8.92,4Z"/>
          <path class="cls-10" d="M131.02,21.69c-18.02,0-26.76,12.09-29.02,28.95-3.11-1.19-6.16-1.12-8.43.5-4.59,3.27-4.25,11.64.77,18.68,3.39,4.75,8.04,7.69,12.12,8.09,8.02,13.8,24.31,24.1,39.55,24.1,21.29,0,26.41-20.08,26.41-41.76s-20.11-38.55-41.4-38.55Z"/>
          <path class="cls-4" d="M132.05,28.54c9.22,7.31,19.77,12.94,30.98,16.53,3.25,1.04,6.65,1.92,10.04,1.55,3.39-.37,6.81-2.22,8.19-5.34,1.39-3.14.03-7.03-3.05-8.51,5.39-3.58,12.69-2.94,13.11-11.72.22-4.7-3.03-9.37-7.41-11.03-5.5-2.08-9.56,1.42-14.41,3.42-5.78,2.37-12.47.99-18.15-1.62-5.68-2.6-10.78-6.35-16.46-8.96s-12.36-4.02-18.15-1.67c-5.79,2.35-9.84,9.49-7.14,15.13-3.69-3.98-10.51-3.91-14.86-.66s-6.39,8.92-6.38,14.35c.01,5.43,1.82,10.69,3.94,15.7,2.25,5.31,4.87,10.47,7.83,15.42,1.13,1.89,2.63,3.96,4.83,4.14,2.37.2,4.35-2.03,4.9-4.35.54-2.32.08-4.73-.07-7.11-.72-11.53,11.26-21.73,22.26-25.28Z"/>
          <rect class="cls-4" x="130.61" y="53.27" width="4.16" height="8.45" rx="2.08" ry="2.08"/>
          <rect class="cls-4" x="157.28" y="53.61" width="4.16" height="8.45" rx="2.08" ry="2.08"/>
          <path class="cls-8" d="M149.63,56.85s3.92,7.86,2.77,14.29"/>
          <path class="cls-4" d="M122.08,47.48c1.97-1.7,4.13-2.97,6.58-3.87,2.49-.93,5.23-1.27,7.92-.98,1.77.16,3.08,1.72,2.92,3.49-.15,1.91-2.01,3.28-3.88,2.86-1.75-.46-3.6-.53-5.42-.13-1.92.38-3.82,1.2-5.49,2.25-2.36,1.35-4.64-1.82-2.63-3.62h0Z"/>
          <path class="cls-4" d="M162.58,49.38c-2.81-1.69-6.32-2.64-9.52-1.74-1.76.48-3.57-.6-3.98-2.38-.4-1.73.68-3.46,2.41-3.86,2.64-.4,5.4-.04,7.85.87,2.28.85,4.28,2.03,6.11,3.63,2.1,1.99-.51,5.12-2.87,3.48h0Z"/>
          <path class="cls-8" d="M150.61,82.77c-.6-.24-1.23-.44-1.89-.7-1.82-.72-3.51-1.74-5.05-2.95s-2.74-2.77-4.22-4.05c-10.76-9.33-16.53,6.11-6.06,11.92,2.99,2.04,6.5,3.48,10.06,4.13,2.91.52,8.2.79,10.15-2.05.99-1.45.46-3.28-.54-4.56-.71-.9-1.54-1.37-2.45-1.74Z"/>
          <line class="cls-9" x1="130.41" y1="83.95" x2="139.09" y2="75.15"/>
          <line class="cls-9" x1="146.16" y1="81.27" x2="139.79" y2="90.19"/>
        </g>
        <polygon class="cls-12" points="240.41 469.46 263.77 470.94 313.87 508.41 234.93 506.09 240.41 469.46"/>
        <polygon class="cls-12" points="87.01 589.86 98.48 620.17 31.31 654.98 57.93 588.63 87.01 589.86"/>
      </g>
      <polygon class="cls-5" points="553.04 334.13 344.77 334.13 349.64 320.33 545.47 320.33 553.04 334.13"/>
      <ellipse class="cls-5" cx="582.59" cy="327.25" rx="20.02" ry="9.06"/>
      <g>
        <path class="cls-11" d="M663.66,92.96h-250.4c-6.41,0-11.6,5.19-11.6,11.6v161.75c0,6.41,5.19,11.6,11.6,11.6h91.79l-19.52,29.62h102.42l-19.52-29.62h95.24c6.41,0,11.6-5.19,11.6-11.6V104.57c0-6.41-5.19-11.6-11.6-11.6ZM662.53,243.13h-248.15V108.24h248.15v134.89Z"/>
        <rect class="cls-7" x="414.38" y="108.24" width="248.15" height="134.89"/>
        <circle class="cls-3" cx="536.74" cy="263.01" r="5.61"/>
        <g>
          <rect class="cls-2" x="478.2" y="148.06" width="16.3" height="11.03"/>
          <rect class="cls-2" x="505.52" y="148.06" width="101.54" height="11.03"/>
          <rect class="cls-2" x="618.09" y="148.06" width="17.05" height="11.03"/>
          <rect class="cls-2" x="445.59" y="163.35" width="22.07" height="11.03"/>
          <rect class="cls-2" x="478.7" y="163.35" width="55.41" height="11.03"/>
          <rect class="cls-2" x="545.14" y="163.35" width="46.63" height="11.03"/>
          <rect class="cls-2" x="602.8" y="163.35" width="32.34" height="11.03"/>
          <rect class="cls-2" x="445.59" y="178.9" width="39.37" height="11.03"/>
          <rect class="cls-2" x="496" y="178.9" width="66.19" height="11.03"/>
          <rect class="cls-2" x="573.22" y="178.9" width="34.35" height="11.03"/>
          <rect class="cls-2" x="618.59" y="178.9" width="16.55" height="11.03"/>
          <rect class="cls-2" x="445.59" y="195.44" width="18.62" height="11.03"/>
          <rect class="cls-2" x="475.24" y="195.44" width="74.4" height="11.03"/>
          <rect class="cls-2" x="560.68" y="195.44" width="37.86" height="11.03"/>
        </g>
      </g>
    </g>
  </g>
</svg>