<?xml version="1.0" encoding="UTF-8"?>
<svg id="Layer_2" data-name="Layer 2" xmlns="http://www.w3.org/2000/svg" viewBox="0 0 1006.35 710.24">
  <defs>
    <style>
      .cls-1, .cls-2, .cls-3, .cls-4 {
        fill: none;
      }

      .cls-5 {
        fill: #401a5a;
      }

      .cls-2 {
        stroke: #401a5a;
        stroke-width: 3.95px;
      }

      .cls-2, .cls-3, .cls-4 {
        stroke-miterlimit: 10;
      }

      .cls-6 {
        fill: #6e4782;
      }

      .cls-7 {
        fill: #401a59;
      }

      .cls-8 {
        fill: #9865e5;
      }

      .cls-9 {
        fill: #6d4783;
      }

      .cls-10 {
        fill: #8e8e8e;
      }

      .cls-3 {
        stroke-linecap: round;
        stroke-width: 2.04px;
      }

      .cls-3, .cls-4 {
        stroke: #1d1d1b;
      }

      .cls-11 {
        fill: #6e4881;
      }

      .cls-12 {
        fill: #1d1d1b;
      }

      .cls-13 {
        fill: #ccc;
      }

      .cls-14 {
        fill: #ececeb;
      }

      .cls-15 {
        fill: #fff;
      }

      .cls-4 {
        stroke-width: 2.22px;
      }

      .cls-16 {
        fill: #6f4981;
      }

      .cls-17 {
        fill: #6b6a6a;
      }

      .cls-18 {
        fill: #3f1959;
      }

      .cls-19 {
        fill: #afafaf;
      }
    </style>
  </defs>
  <g id="Layer_1-2" data-name="Layer 1">
    <g>
      <ellipse class="cls-12" cx="886.2" cy="690.48" rx="120.15" ry="19.75"/>
      <g>
        <g>
          <rect class="cls-14" x="476.86" y="200.39" width="214.58" height="221.21"/>
          <rect class="cls-2" x="492.03" y="185.35" width="215.5" height="220.55"/>
          <rect class="cls-11" x="635.2" y="220.3" width="41.48" height="145.85"/>
          <rect class="cls-7" x="576.86" y="263.14" width="40.56" height="103.01"/>
          <rect class="cls-7" x="513.96" y="296.42" width="42.84" height="69.74"/>
          <line class="cls-2" x1="505.17" y1="366.07" x2="684.09" y2="366.07"/>
          <rect class="cls-5" x="553.05" y="380.78" width="12.04" height="12.04"/>
          <rect class="cls-5" x="533.13" y="380.78" width="12.04" height="12.04"/>
          <rect class="cls-5" x="514.6" y="380.78" width="12.04" height="12.04"/>
          <line class="cls-2" x1="634.34" y1="379.98" x2="679.51" y2="379.98"/>
          <line class="cls-2" x1="634.34" y1="386.2" x2="679.51" y2="386.2"/>
          <line class="cls-2" x1="634.34" y1="391.85" x2="679.51" y2="391.85"/>
        </g>
        <g>
          <rect class="cls-14" y="27.49" width="414.99" height="229.06"/>
          <rect class="cls-2" x="21.87" y="1.97" width="415.6" height="229.67"/>
          <path class="cls-8" d="M317.59,126.95c0,22.86-8.6,43.73-22.74,59.51-2.62,2.96-5.46,5.74-8.48,8.32-15.62,13.39-35.92,21.48-58.09,21.48s-40.75-7.42-56.08-19.8c-20.28-16.37-33.24-41.42-33.24-69.51,0-48.54,38.78-88.07,87.03-89.3.77-.02,1.52-.02,2.29-.02,49.33,0,89.32,40,89.32,89.32Z"/>
          <path class="cls-9" d="M294.85,186.47c-2.62,2.96-5.46,5.74-8.48,8.32-15.62,13.39-35.92,21.48-58.09,21.48s-40.75-7.42-56.08-19.8l54.13-69.43.06-.08,68.47,59.51Z"/>
          <path class="cls-18" d="M317.59,126.95c0,22.86-8.6,43.73-22.74,59.51l-68.47-59.51-.06.08-.34-89.38c.77-.02,1.52-.02,2.29-.02,49.33,0,89.32,40,89.32,89.32Z"/>
          <line class="cls-2" x1="339.26" y1="189.68" x2="401.97" y2="189.68"/>
          <line class="cls-2" x1="339.26" y1="199.78" x2="401.97" y2="199.78"/>
          <line class="cls-2" x1="339.26" y1="209.63" x2="401.97" y2="209.63"/>
          <rect class="cls-16" x="38.48" y="185.5" width="17.22" height="15.17"/>
          <rect class="cls-16" x="65.34" y="185.5" width="17.22" height="15.17"/>
          <rect class="cls-16" x="91.57" y="185.5" width="17.22" height="15.17"/>
        </g>
        <g>
          <rect class="cls-14" x="133.88" y="337.2" width="245.03" height="223.99"/>
          <rect class="cls-2" x="152" y="319.98" width="245.69" height="224.4"/>
          <path class="cls-1" d="M255.11,479.68c5.49,1.79,11.33,2.78,17.41,2.78,30.95,0,56.14-25.18,56.14-56.14s-25.18-56.14-56.14-56.14c-2.15,0-4.27.13-6.36.37l6.77,29.48-17.82,79.64Z"/>
          <path class="cls-1" d="M216.39,426.32c0,22.47,13.27,41.88,32.38,50.85l7.22-104.5c-22.91,7.07-39.6,28.45-39.6,53.65Z"/>
          <path class="cls-5" d="M272.52,348.99c-3.78,0-7.49.29-11.13.81l4.77,20.76c2.09-.24,4.21-.37,6.36-.37,30.95,0,56.14,25.18,56.14,56.14s-25.18,56.14-56.14,56.14c-6.08,0-11.93-.98-17.41-2.78l-4.64,20.75c6.99,2.09,14.39,3.22,22.06,3.22,42.64,0,77.34-34.69,77.34-77.34s-34.69-77.34-77.34-77.34Z"/>
          <path class="cls-8" d="M255.99,372.67l1.54-22.21c-35.49,7-62.34,38.35-62.34,75.86,0,33.79,21.79,62.56,52.04,73.07,1.07.37,2.15.72,3.24,1.05l4.64-20.75c-2.18-.71-4.29-1.55-6.34-2.51-19.11-8.96-32.38-28.38-32.38-50.85,0-25.2,16.69-46.57,39.6-53.65Z"/>
          <path class="cls-5" d="M266.16,370.56l-4.77-20.76c-1.3.19-2.59.41-3.87.66l-1.54,22.21c3.27-1.01,6.67-1.72,10.17-2.12Z"/>
          <line class="cls-2" x1="311.51" y1="521.32" x2="364.28" y2="521.32"/>
          <line class="cls-2" x1="311.51" y1="529.54" x2="364.28" y2="529.54"/>
          <rect class="cls-6" x="214.37" y="511.12" width="13.06" height="12.7"/>
          <rect class="cls-6" x="192.01" y="511.12" width="13.06" height="12.7"/>
          <rect class="cls-6" x="169.83" y="511.12" width="13.06" height="12.7"/>
        </g>
      </g>
      <path class="cls-10" d="M729.68,371.33c-1.37,6.54-1.42,13.04-2.52,19.56-.38,2.24-.63,4.57-.05,6.78,1.97,7.5,14.53,8.51,20.79,8.09,6.21-.42,12.2-1.69,18.18-3.36,12.75-3.55,25.56-8.77,38.73-7.46,3.5.35,7.12,1.15,10.47.09,4.22-1.33,7.11-5.42,8.19-9.71s.67-8.8.17-13.19c-4.47-39.92-14.41-79.23-29.44-116.48-1.57-3.89-4.01-8.37-8.2-8.61-4.07-.24-7,3.72-9.06,7.24-14.27,24.36-26.15,50.11-35.44,76.76-4.58,13.15-8.98,26.64-11.83,40.28Z"/>
      <g>
        <rect class="cls-15" x="863.63" y="618.3" width="26.4" height="45.08"/>
        <polygon class="cls-15" points="916.43 599.62 934.3 619.52 954.01 596.79 929.02 576.06 916.43 599.62"/>
      </g>
      <path class="cls-17" d="M802.69,364.75c-1.88,1.58-2.14,11.7-2.59,14.28-.9,5.11-1.77,10.22-2.55,15.35-1.52,10.03-3.25,20.41-3.37,30.57-.25,20.76,2.61,42.02,3.95,62.75.46,7.13.97,14.44,3.97,20.92,5,10.76,15.67,16.94,25.33,22.97,10.04,6.28,19.21,13.79,28.68,20.77,11.67,8.6,23.67,16.76,35.05,25.76,5.74,4.54,11.32,9.29,16.55,14.42,1.38,1.35,13.5,15.87,13.83,15.75,5.24-1.88,10.58-3.82,14.98-7.23,4.4-3.42,7.77-8.63,7.55-14.2-.2-5.2-3.39-9.74-6.53-13.88-22.92-30.23-50.01-57.29-80.25-80.18-8.78-6.64-7.25-17.09-7.37-28.09-.13-11.01,2.45-21.87,5.6-32.42,1.79,30.87,2.38,61.83,1.39,92.73-.47,14.74-1.32,29.27-1.08,43.97.26,16.15.52,32.29.78,48.44.05,3.33.14,6.78,1.6,9.77,2.02,4.12,6.41,6.68,10.91,7.62,8.59,1.8,27.79,5.82,29.06-6.74,0-67.31,4.98-135.25,16.11-201.7.34-2.02.68-4.03,1.03-6.05,1.82-10.52,3.81-21.11,3.43-31.78-.38-10.67-3.35-21.6-10.37-29.65-8.91-10.23-23.05-14.42-36.6-15.03-22.37-1.02-51.95,6.46-69.08,20.89Z"/>
      <path class="cls-19" d="M821.29,172.46c-6.48,6.37-11.97,13.75-16.16,21.81-13.85,26.64-12.67,58.42-9.06,88.23,3.61,29.81,9.29,60.16,3.33,89.59,21.68,4.43,44.33,4.08,65.86-1,16.74-3.95,34.32-12.18,41.05-28.02-18.43-45.44-26.64-95.99-23.71-144.93.43-7.14.89-15.01-3.45-20.7-4.5-5.92-12.68-7.47-20.11-7.84-14.1-.71-27.69-7.02-37.76,2.88Z"/>
      <path class="cls-13" d="M846.61,172.72c-1.26.85-2.88.99-4.4,1.08-6.92.49-13.87.99-20.79,1.48-1.2,6.73-2.47,13.43-3.63,20.16-.89,5.17-.28,9.84-1.85,14.99-5.01,16.49-12.03,32.35-20.95,47.1-16.63,27.54-39.88,51.68-49.71,82.33-5.27,16.45-6.35,33.93-7.22,51.19-.26,5.05-1.24,11.16-5.98,12.96-4.2,1.6-8.99-1.72-10.67-5.9-1.66-4.18-1.07-8.88-.43-13.33,5.4-38.88,18.84-73.93,25.45-110.36,3.22-17.71,4.79-35.76,3.06-54.72-.04-.43-.08-.87-.12-1.3-24.52-4.22-48.13-11.64-70.79-21.88-2.98-6.9-5.8-15.23-8.8-22.15,3.51-5.68,11.22-7.26,17.83-6.25,6.61,1.01,12.74,3.98,19.29,5.31,5.11,1.05,10.38-.06,15.37.79,4.52.75,8.92,3.95,13.49,5.11,4.44,1.12,9.21,1.38,13.55-.08,3.45-1.14,6.47-3.29,9.7-5.01,7.81-4.12,17.97-3.79,26.55-4.38,10.42-.73,20.85-1.52,31.27-2.17,9.23-.57,18.13-1.1,27.34-.39,1.36.1,2.92.32,3.67,1.46.81,1.3.06,3.12-1.22,3.96Z"/>
      <path class="cls-15" d="M642.41,185.87c-2.04,6.45-2.3,13.21-2.55,19.92-.11,2.88-.44,4.15,2.65,5.08,2.85.86,6.18.45,8.76-1.02,3.83-2.18,6.03-6.31,8.64-9.86s6.49-6.93,10.87-6.36c2.55.33,4.73,1.97,7.2,2.67s5.83-.14,6.27-2.67c.71-4.07-.43-8.15-3.06-11.31-5.72-6.88-10.64-16.54-21.23-13.91-8.14,2.02-15.06,9.63-17.54,17.46Z"/>
      <polygon class="cls-17" points="953.76 594.78 981.62 604.61 944.21 681.58 931.34 624.03 953.76 594.78"/>
      <polygon class="cls-17" points="862.95 648.35 891.65 650.85 896.01 690.15 878.55 703.25 854.84 688.9 862.95 648.35"/>
      <path class="cls-13" d="M952.3,309.08c-.87,7.14-3.39,14.12-6.67,20.49-1.52,2.98-3.25,5.92-4.87,8.82-1.54,2.72-3.27,2.6-6.12.87-5.94-3.61-11.16-8.4-15.29-14.01-.89-1.2-1.74-2.49-2.17-3.93-.93-3.22,1.54-5.4,3.12-7.95.87-1.4,4.73-5.94,4.58-7.44-1.1-10.08-5.17-19.82-11.54-27.71-.34-.43-.73-.87-1.16-1.2-.59-.47-1.24-.77-1.97-.67-2.01.32-2.17,3.16-1.79,5.15.43,2.23.81,4.48,1.18,6.75,2.19,13.65,3.57,27.64,8.03,40.65,11.01,32.15,19.74,65.11,26.1,98.51-18.94-10.45-31.15-29.84-40.75-49.25-16.85-34.03-28.21-70.74-33.75-108.29-2.8-18.98-4.12-38.15-3.93-57.32.06-5.9.75-11.78,1.16-17.65.22-2.94.35-5.88.31-8.8,0-1.28-.18-2.47-.08-3.75.1-1.52.22-3.04.32-4.54.1-1.16.45-2.03-.65-2.78-1.58-1.08-4.2-.12-5.42-1.79-.67-.95-.69-2.21-.67-3.37,1.78-.04,1.2-.34,2.96-.37.18.02.34.04.49.06,16.16,1.85,31.88,7.14,45.96,15.27,6.57,3.81,14.42,8.38,19.55,14.06,2.43,2.68,2.6,7.59,3.49,11.14,1.07,4.36,2.21,8.7,3.43,13.02,3.95,14.01,8.52,27.81,12.74,41.74,2.15,7.14,2.7,14.64,3.24,22.07.53,7.4,1.09,14.87.18,22.23Z"/>
      <path class="cls-15" d="M921,316.61c-1.8,1.41-3.27,3.31-4.5,5.23-3.08,4.79-5.64,9.97-8.64,14.83-3.9,6.32-8,12.51-12.31,18.56-2.33,3.28-4.73,6.52-7.18,9.72-2.45,3.2-5,6.42-6.41,10.19-1.42,3.77-1.53,8.27.73,11.6,2.28,3.36,6.57,4.91,10.63,4.91,5.4,0,10.52-1.81,14.91-4.81,6.43-4.41,10.49-11.43,14.34-18.21,4.42-7.8,8.84-15.59,13.26-23.39,1.35-2.37,2.67-4.78,3.72-7.3-3.33-8.9-10.37-16.21-18.55-21.33Z"/>
      <g>
        <path class="cls-15" d="M872.87,176.41c-.24,2.51-2.53,4.77-6.23,6.59-5.19,2.52-13.16,4.14-22.09,4.14-15.64,0-28.34-4.97-28.34-11.13,0-.63.14-1.2.41-1.72l13.39-2.07v-1.16c19.65,2.88,30.24-22.86,33.22-31.4t.04-.02v34.4l9.61,2.37Z"/>
        <path class="cls-15" d="M863.26,137.95v1.7s-.02.02-.04.02c-2.98,8.54-13.57,34.28-33.22,31.4v-9.35l33.26-23.77Z"/>
        <path class="cls-12" d="M863.26,137.95v1.58s-.04.08-.04.14c-2.98,8.54-13.57,34.28-33.22,31.4v-9.35l9.27-4.16,17.52-11.8,6.47-7.81Z"/>
        <path class="cls-15" d="M875.49,131.32c-3.43,4.79-8.07,7.79-12.23,8.32t-.04.02c-.1.02-.22.02-.32.04-6.9,11.89-19.71,21.26-32.9,24.12-2.72.59-5.46.91-8.17.91-22.11,0-27.44-20.85-27.44-43.38,0-5.01,1.03-9.76,2.9-14.14,6.45-15.29,22.9-25.88,40.1-25.88,18.72,0,27.79,12.55,30.14,30.06,2.8-1.08,5.56-1.16,7.77-.06.34.16.65.36.97.57,4.77,3.39,4.42,12.09-.79,19.41Z"/>
        <path class="cls-12" d="M836.33,88.44c-9.58,7.59-20.54,13.44-32.17,17.16-3.38,1.08-6.91,2-10.43,1.61s-7.07-2.3-8.51-5.54c-1.45-3.26-.03-7.3,3.17-8.83-5.6-3.72-13.18-3.06-13.61-12.17-.23-4.88,3.15-9.74,7.69-11.45,5.71-2.16,9.93,1.48,14.97,3.55,6,2.47,12.95,1.02,18.85-1.68,5.9-2.7,11.2-6.59,17.1-9.3s12.83-4.18,18.85-1.74c6.02,2.44,10.22,9.86,7.41,15.71,3.83-4.14,10.91-4.07,15.43-.69,4.52,3.38,6.64,9.27,6.62,14.91-.01,5.64-1.89,11.11-4.09,16.3-2.34,5.52-5.06,10.88-8.13,16.02-1.18,1.97-2.73,4.11-5.02,4.3-2.46.21-4.52-2.11-5.09-4.51-.57-2.41-.08-4.92.07-7.38.74-11.98-11.69-22.57-23.11-26.25Z"/>
        <rect class="cls-12" x="833.51" y="114.13" width="4.32" height="8.78" rx="2.16" ry="2.16" transform="translate(1671.34 237.04) rotate(-180)"/>
        <rect class="cls-12" x="805.81" y="114.48" width="4.32" height="8.78" rx="2.16" ry="2.16" transform="translate(1615.94 237.73) rotate(-180)"/>
        <path class="cls-3" d="M818.07,117.84s-4.07,8.16-2.88,14.84"/>
        <path class="cls-12" d="M846.68,108.11c-2.04-1.77-4.29-3.08-6.83-4.02-2.59-.96-5.44-1.32-8.23-1.02-1.84.16-3.2,1.78-3.03,3.62.16,1.99,2.09,3.4,4.03,2.97,1.82-.48,3.74-.55,5.63-.14,2,.4,3.97,1.25,5.7,2.34,2.45,1.4,4.81-1.89,2.73-3.76h0Z"/>
        <path class="cls-12" d="M804.62,110.08c2.92-1.76,6.57-2.74,9.88-1.81,1.82.49,3.71-.62,4.14-2.47.42-1.8-.7-3.59-2.5-4.01-2.74-.42-5.6-.05-8.15.9-2.37.88-4.45,2.11-6.34,3.77-2.18,2.07.53,5.32,2.98,3.62h0Z"/>
        <path class="cls-3" d="M817.05,144.76c.62-.25,1.28-.46,1.96-.73,1.9-.74,3.65-1.8,5.25-3.06,1.61-1.27,2.85-2.88,4.38-4.21,11.18-9.69,17.17,6.34,6.29,12.38-3.1,2.12-6.75,3.62-10.44,4.28-3.02.54-8.51.82-10.54-2.13-1.03-1.5-.48-3.4.56-4.74.73-.94,1.6-1.42,2.55-1.81Z"/>
        <line class="cls-4" x1="838.03" y1="145.99" x2="829.02" y2="136.85"/>
        <line class="cls-4" x1="821.67" y1="143.21" x2="828.29" y2="152.47"/>
      </g>
      <path class="cls-13" d="M813.46,175.33c-.44,1.83-.6,3.78-.23,5.63.37,1.87,1.51,3.49,1.77,5.4.15,1.11.54,2.22,1,3.23.26.59.7,1.24,1.34,1.23.38,0,.72-.26.93-.58s.31-.69.41-1.06c.7-2.59,1.36-5.2,2.09-7.79.31-1.11.84-2.21,1.21-3.32.42-1.23.83-2.46,1.25-3.69.19-.55.37-1.15.18-1.7-.29-.82-1.25-1.14-2.09-1.36-1.85-.47-3.94-.91-5.56.1-1.31.82-1.94,2.39-2.3,3.89Z"/>
      <path class="cls-13" d="M866.06,173.13c2.02-.43,4.16-.34,6.14.26,1.13.34,2.25.88,2.95,1.83.8,1.08.91,2.52.81,3.85-.24,3.06-1.49,5.97-3.14,8.55s-3.72,4.87-5.78,7.14c.31-.36-.27-2.85-.25-3.49.11-2.98,0-5.87-.17-8.85-.05-.78-.68-9.27-.56-9.29Z"/>
      <path class="cls-17" d="M881.36,369.8c5.69,11.65,14.62,21.71,25.52,28.73-6.65,4.17-15.04,5.47-22.64,3.5-3.48-.9-6.89-2.54-9.16-5.33-2.47-3.04-3.32-7.15-3.13-11.07s1.34-7.71,2.48-11.47c.74-.69.98-.54,1.72-1.23,1.49-1.39,3.44-2.1,5.2-3.14Z"/>
      <path class="cls-10" d="M912.18,277.03c-.59-.47-1.24-.77-1.97-.67-2.01.32-2.17,3.16-1.79,5.15.43,2.23.81,4.48,1.18,6.75-1.1-1.52-1.48-3.41-1.81-5.25-2.98-16.12-5.98-32.45-4.73-48.8,1.68,14.52,4.73,28.9,9.13,42.82Z"/>
      <path class="cls-10" d="M746.43,274.43c3.22-17.71,4.79-35.76,3.06-54.72,2.82-3.96,5.66-7.91,8.5-11.87-.3,22.61-4.22,45.19-11.56,66.59Z"/>
    </g>
  </g>
</svg>