<?xml version="1.0" encoding="UTF-8"?>
<svg id="Layer_2" data-name="Layer 2" xmlns="http://www.w3.org/2000/svg" viewBox="0 0 1041.8 556.14">
  <defs>
    <style>
      .cls-1 {
        fill: #aa72d8;
      }

      .cls-2 {
        fill: #cdbbe7;
      }

      .cls-3, .cls-4, .cls-5 {
        fill: none;
      }

      .cls-3, .cls-4, .cls-5, .cls-6, .cls-7 {
        stroke-miterlimit: 10;
      }

      .cls-3, .cls-5 {
        stroke-width: 17.32px;
      }

      .cls-3, .cls-6 {
        stroke: #30043c;
      }

      .cls-8 {
        fill: #c7ace4;
      }

      .cls-9 {
        fill: #9362d2;
      }

      .cls-4 {
        stroke-linecap: round;
        stroke-width: 1.55px;
      }

      .cls-4, .cls-7 {
        stroke: #1d1d1b;
      }

      .cls-10 {
        fill: #3a3838;
      }

      .cls-11 {
        fill: #8e8e8e;
      }

      .cls-12 {
        fill: #8658bb;
      }

      .cls-13, .cls-6 {
        fill: #cccdcd;
      }

      .cls-14 {
        fill: #b19fe1;
      }

      .cls-15 {
        fill: #a785ca;
      }

      .cls-16 {
        fill: #1d1d1b;
      }

      .cls-17 {
        fill: #905fcc;
      }

      .cls-5 {
        stroke: #ceccce;
      }

      .cls-18, .cls-7 {
        fill: #fff;
      }

      .cls-6 {
        stroke-width: 1.73px;
      }

      .cls-19 {
        fill: #6b6a6a;
      }

      .cls-7 {
        stroke-width: 1.69px;
      }

      .cls-20 {
        fill: #30043d;
      }

      .cls-21 {
        fill: #afafaf;
      }
    </style>
  </defs>
  <g id="Layer_1-2" data-name="Layer 1">
    <g>
      <line class="cls-3" x1="238.28" y1="173.7" x2="470.89" y2="173.7"/>
      <line class="cls-3" x1="238.28" y1="195.89" x2="470.89" y2="195.89"/>
      <ellipse class="cls-11" cx="520.9" cy="532.82" rx="520.9" ry="23.32"/>
      <polygon class="cls-10" points="109.36 487.76 101.4 506.52 152.43 540.93 129.15 491.21 109.36 487.76"/>
      <polygon class="cls-10" points="79.91 503.9 83.22 536.54 20.6 539.38 68.34 495.63 79.91 503.9"/>
      <path class="cls-18" d="M173.5,175.81c.59-.43,1.12-.75,1.52-.93,5.01-2.22,12.41-2.11,17.85-2.98,2.66-.42,5.35-.85,8.03-.57s5.38,1.35,7.07,3.45c2.46,3.05,2.17,7.73-.03,10.98s-5.95,5.17-9.78,5.99c-3.83.82-7.8.64-11.71.47-3.67-.17-7.43-.35-10.85-1.7s-6.51-4.11-7.25-7.71c-.41-1.99,2.82-5.29,5.16-6.99Z"/>
      <polygon class="cls-20" points="962.05 249.5 962.05 527.98 159.69 527.98 159.69 381.73 962.05 249.5"/>
      <path class="cls-19" d="M49.69,270.16c-1.23,57.25-4.11,114.46-8.64,171.54-1.4,17.64-2.96,35.26-4.51,52.89,12.64,12.83,32.37,19.6,49.4,13.72,3.44-61.44,10.25-123.21,23.45-183.31-.72,10.82,7.58,21.29,14.87,29.32s15.54,15.99,18.34,26.46c-14.46,33-26.08,66.75-40.53,99.75,8.66,10.34,19.96,18.46,32.52,23.37,5.82-43.4,35.84-79.85,49.39-121.49,12.86-39.53-24.77-79.9-31.5-120.93-34.57-4.96-68.79.66-102.78,8.67Z"/>
      <path class="cls-11" d="M184.61,196.48c1.38-9.07.45-18.48-2.67-27.11-19.17-3.79-38.79-6.31-57.95-10.1,2.3,5.31,2.46,11.25,3.12,17,.66,5.75,2.04,11.79,6.13,15.89,3.86,3.87,9.47,5.35,14.84,6.33,11.26,2.06,25.13-1.09,36.54-2.01Z"/>
      <path class="cls-21" d="M168.67,281.23c-12.29.23-24.33-5.84-31.29-15.97-.69,9.65-9.32,17.23-18.62,19.88-9.32,2.63-19.22,1.4-28.82.16-15.26-2.01-30.51-4-45.77-6.01,6.1-32.05.81-64.71-4.26-96.51-2.56-16.12-5.16-32.28-6.36-48.57-.59-8.03-1.85-16.14-1.11-24.21.55-6.08,3.27-9.8,7.36-13.54.24-.23.52-.45.78-.69,6.25-3,32.62-14.36,60.52-7.95.03.02.07.03.1.05,3.31,1.75,6.44,3.84,9.3,6.23,1.26,1.04,2.42,2.1,3.52,3.17,6.98,6.82,10.65,14.25,12.36,24.31,4.5,26.41,9.49,52.87,18.08,78.31,9.09,26.89,22.29,53.01,24.19,81.34Z"/>
      <path class="cls-18" d="M70.54,243.78c.72-.06,1.34-.07,1.78-.02,5.44.67,11.74,4.56,16.85,6.6,2.5,1,5.03,2.02,7.18,3.63s3.92,3.92,4.29,6.59c.55,3.88-2.1,7.75-5.65,9.41-3.55,1.65-7.76,1.39-11.47.12s-7.02-3.45-10.29-5.61c-3.07-2.03-6.2-4.11-8.44-7.03s-3.48-6.87-2.27-10.34c.67-1.92,5.13-3.09,8.02-3.35Z"/>
      <path class="cls-11" d="M15.96,149.5c-1.71,16.33-3.37,33.19,1.46,48.88,1.81,5.87,4.49,11.44,7.49,16.81,5.56,9.93,12.27,19.2,19.92,27.62,3.83,4.21,7.89,8.2,12.16,11.96,1.97,1.73,3.97,3.46,5.96,5.15,2.16,1.85,4.94,3.02,7.46,4.38,4.91-3.4,8.93-8.07,11.56-13.44.58-1.18,1.78-3.38,1.46-4.75s-2.25-2.77-3.22-3.81c-11.37-13.99-28.83-25.5-34.59-43.37-2.15-6.66,1.7-16.35,3.07-23.35l5.15-26.34c1.93-9.86,3.86-20,2.08-29.89-2.24-12.43-16.66-31.67-27.69-15.94-9.17,13.08-10.66,30.72-12.27,46.1Z"/>
      <path class="cls-11" d="M109.9,171.22c-13.46-24.92-29.16-48.64-46.88-70.74-.97-1.21-1.96-2.48-2.87-3.79-1.51-2.18-2.75-4.5-3.24-6.94,11.6-3.27,27.64-5.73,44.21-1.92.03.02.07.03.1.05,1.94,2.98,3.43,6.1,4.55,9.32,3.13,8.87,3.62,18.55,3.71,28.38.14,15.22.28,30.43.42,45.65Z"/>
      <g>
        <path class="cls-18" d="M101.29,89.02c0,4.66-9.64,8.45-21.52,8.45s-21.11-3.62-21.51-8.15l7.3-1.8v-27.42l25.25,18.05v7.98l10.18,1.57c.21.39.31.82.31,1.31Z"/>
        <path class="cls-16" d="M90.81,78.15v7.1c-15,2.2-23.05-17.57-25.25-23.96v-1.2l4.92,5.94,13.29,8.95,7.04,3.16Z"/>
        <path class="cls-18" d="M85.2,17.11c-14.21,0-21.1,9.53-22.88,22.83-2.45-.94-4.86-.88-6.65.39-3.62,2.58-3.35,9.18.61,14.73,2.67,3.75,6.34,6.06,9.56,6.38,6.33,10.89,19.17,19,31.19,19,16.79,0,20.83-15.83,20.83-32.93s-15.86-30.4-32.65-30.4Z"/>
        <path class="cls-16" d="M86,22.51c7.27,5.76,15.59,10.2,24.43,13.04,2.56.82,5.25,1.52,7.92,1.23,2.68-.29,5.37-1.75,6.46-4.21,1.1-2.48.03-5.54-2.41-6.71,4.25-2.82,10.01-2.32,10.34-9.24.18-3.71-2.39-7.39-5.84-8.7-4.34-1.64-7.54,1.12-11.37,2.69-4.56,1.87-9.83.78-14.32-1.27s-8.51-5.01-12.98-7.07-9.75-3.17-14.31-1.32c-4.57,1.85-7.76,7.49-5.63,11.93-2.91-3.14-8.29-3.09-11.72-.52-3.43,2.56-5.04,7.04-5.03,11.32s1.44,8.43,3.11,12.38c1.77,4.19,3.84,8.26,6.18,12.16.89,1.49,2.07,3.12,3.81,3.27,1.87.16,3.43-1.6,3.86-3.43s.06-3.73-.06-5.61c-.56-9.1,8.88-17.14,17.55-19.94Z"/>
        <rect class="cls-16" x="84.87" y="42.02" width="3.28" height="6.66" rx="1.64" ry="1.64"/>
        <rect class="cls-16" x="105.9" y="42.28" width="3.28" height="6.66" rx="1.64" ry="1.64"/>
        <path class="cls-4" d="M99.87,44.83s3.09,6.2,2.18,11.27"/>
        <path class="cls-16" d="M78.14,37.45c1.55-1.34,3.26-2.34,5.19-3.05,1.96-.73,4.13-1,6.25-.77,1.4.12,2.43,1.35,2.3,2.75-.12,1.51-1.59,2.59-3.06,2.26-1.38-.36-2.84-.42-4.27-.1-1.52.3-3.01.95-4.33,1.78-1.86,1.07-3.66-1.44-2.07-2.86h0Z"/>
        <path class="cls-16" d="M110.09,38.94c-2.21-1.34-4.99-2.08-7.51-1.37-1.39.38-2.82-.47-3.14-1.88-.32-1.37.53-2.73,1.9-3.05,2.08-.32,4.25-.03,6.19.69,1.8.67,3.38,1.6,4.82,2.86,1.66,1.57-.4,4.04-2.26,2.75h0Z"/>
        <path class="cls-4" d="M100.64,65.28c-.47-.19-.97-.35-1.49-.55-1.44-.57-2.77-1.37-3.98-2.32s-2.16-2.19-3.33-3.19c-8.49-7.36-13.04,4.82-4.78,9.4,2.36,1.61,5.12,2.75,7.93,3.25,2.29.41,6.46.63,8-1.62.78-1.14.36-2.59-.43-3.6-.56-.71-1.21-1.08-1.93-1.37Z"/>
        <line class="cls-7" x1="84.71" y1="66.21" x2="91.56" y2="59.27"/>
        <line class="cls-7" x1="97.14" y1="64.1" x2="92.11" y2="71.13"/>
      </g>
      <line class="cls-5" x1="668.37" y1="382.99" x2="900.98" y2="382.99"/>
      <line class="cls-5" x1="668.37" y1="405.18" x2="900.98" y2="405.18"/>
      <line class="cls-5" x1="668.37" y1="428.2" x2="771.12" y2="428.2"/>
      <rect class="cls-13" x="158.55" y="9" width="803.48" height="27.1"/>
      <circle class="cls-13" cx="561.9" cy="510.82" r="8.07"/>
      <circle class="cls-13" cx="536.01" cy="510.82" r="8.07"/>
      <circle class="cls-6" cx="510.87" cy="510.82" r="8.07"/>
      <circle class="cls-8" cx="322.39" cy="279.25" r="50.72"/>
      <circle class="cls-1" cx="322.39" cy="279.25" r="32.12"/>
      <circle class="cls-12" cx="322.39" cy="279.25" r="19.49"/>
      <circle class="cls-8" cx="767.46" cy="138.48" r="50.72"/>
      <circle class="cls-1" cx="767.46" cy="138.48" r="32.12"/>
      <circle class="cls-12" cx="767.46" cy="138.48" r="19.49"/>
      <circle class="cls-8" cx="786.92" cy="483.72" r="35.91"/>
      <circle class="cls-1" cx="786.92" cy="483.72" r="22.74"/>
      <rect class="cls-9" x="776.06" y="472.86" width="21.72" height="21.72"/>
      <rect class="cls-14" x="761.97" y="479.32" width="49.9" height="8.79"/>
      <circle class="cls-15" cx="230.41" cy="23.25" r="6.45"/>
      <circle class="cls-15" cx="209.71" cy="23.25" r="6.45"/>
      <circle class="cls-15" cx="189.62" cy="23.25" r="6.45"/>
      <path class="cls-2" d="M919.5,466.27s.85,57.51,42.56,61.71c0,0,5.64-39.74-42.56-61.71Z"/>
      <path class="cls-17" d="M962.13,533.84s-14.48-37.43-67.27-33.06c0,0,28.83,49.77,67.27,33.06"/>
    </g>
  </g>
</svg>