<?xml version="1.0" encoding="utf-8"?>
<!-- Generator: Adobe Illustrator 28.0.0, SVG Export Plug-In . SVG Version: 6.00 Build 0)  -->
<svg version="1.1" id="Capa_1" xmlns="http://www.w3.org/2000/svg" xmlns:xlink="http://www.w3.org/1999/xlink" x="0px" y="0px"
	 viewBox="0 0 278 91" style="enable-background:new 0 0 278 91;" xml:space="preserve">
<style type="text/css">
	.st0{fill:#262626;}
	.st1{fill:#B3B3B3;}
	.st2{clip-path:url(#SVGID_00000083080689760107238820000009841047715468723347_);}
	.st3{clip-path:url(#SVGID_00000039097043275503582820000015378287523821252999_);}
	.st4{clip-path:url(#SVGID_00000173844676954126446800000011906537777174604723_);}
	.st5{clip-path:url(#SVGID_00000076595779450833775170000000027048489107739290_);}
	.st6{clip-path:url(#SVGID_00000028294268318114603300000002730134093905866390_);}
	.st7{clip-path:url(#SVGID_00000183242975533063575400000013474806073776197792_);}
	.st8{clip-path:url(#SVGID_00000054986295780571136460000011815021788195478160_);}
	.st9{clip-path:url(#SVGID_00000060743993775141040170000014361457997306137746_);fill:#D00F1F;}
	.st10{clip-path:url(#SVGID_00000070085434882152759690000010453672035918349211_);fill:#D00F1F;}
	.st11{clip-path:url(#SVGID_00000013155156420939465690000008712174565731247516_);}
	.st12{clip-path:url(#SVGID_00000160155055380023392900000010973869343170629771_);}
	.st13{clip-path:url(#SVGID_00000081619772670836278090000008731721641868389567_);}
	.st14{fill:none;stroke:#000000;stroke-width:1.6477;stroke-miterlimit:10;}
</style>
<g id="Guides">
</g>
<g>
	<g>
		<path class="st0" d="M232.8,27.8h10.4c2.5,0,5.9,0,7.6,1.1c1.9,1.1,3.4,3.2,3.4,6c0,3.1-1.6,5.4-4.3,6.4v0.1
			c3.5,0.7,5.5,3.4,5.5,6.9c0,4.2-3,8.3-8.7,8.3h-13.9V27.8z M236.6,40.2h7.7c4.4,0,6.1-1.6,6.1-4.6c0-4-2.8-4.6-6.1-4.6h-7.7V40.2z
			 M236.6,53.4h9.6c3.3,0,5.4-2,5.4-5.2c0-3.8-3-4.8-6.2-4.8h-8.8V53.4z"/>
		<path class="st0" d="M265.2,42.2c0,12.1-9.8,21.9-21.9,21.9c-12.1,0-21.9-9.8-21.9-21.9s9.8-21.9,21.9-21.9
			C255.4,20.3,265.2,30.1,265.2,42.2z M243.3,17c-13.9,0-25.2,11.3-25.2,25.2s11.3,25.2,25.2,25.2c13.9,0,25.2-11.3,25.2-25.2
			C268.6,28.3,257.3,17,243.3,17z"/>
	</g>
	<g>
		<rect x="218.2" y="72.7" class="st0" width="50.3" height="3.3"/>
		<path class="st0" d="M266.9,69.1c0.1,0,0.1,0,0.2,0s0.1,0,0.1,0l0.1-0.1c0,0,0-0.1,0-0.2s0-0.1,0-0.1l-0.1-0.1h-0.1H267h-0.4v0.6
			L266.9,69.1L266.9,69.1z M267,68.3c0.2,0,0.4,0,0.5,0.1s0.2,0.2,0.2,0.4c0,0.2,0,0.3-0.1,0.4s-0.2,0.1-0.3,0.1l0.5,0.8h-0.3
			l-0.5-0.8h-0.3v0.8h-0.3v-1.8H267L267,68.3z M265.8,69.7c0.1,0.2,0.1,0.3,0.3,0.4c0.1,0.1,0.2,0.2,0.4,0.3
			c0.1,0.1,0.3,0.1,0.5,0.1s0.3,0,0.5-0.1s0.3-0.2,0.4-0.3s0.2-0.3,0.3-0.4c0.1-0.2,0.1-0.3,0.1-0.5s0-0.4-0.1-0.5
			c-0.1-0.2-0.2-0.3-0.3-0.4c-0.1-0.1-0.2-0.2-0.4-0.3c-0.1-0.1-0.3-0.1-0.5-0.1s-0.3,0-0.5,0.1s-0.3,0.2-0.4,0.3
			c-0.1,0.1-0.2,0.3-0.3,0.4c-0.1,0.2-0.1,0.3-0.1,0.5C265.7,69.4,265.7,69.5,265.8,69.7 M265.6,68.6c0.1-0.2,0.2-0.3,0.3-0.5
			c0.1-0.1,0.3-0.2,0.5-0.3s0.4-0.1,0.6-0.1s0.4,0,0.6,0.1s0.3,0.2,0.5,0.3c0.1,0.1,0.3,0.3,0.3,0.5c0.1,0.2,0.1,0.4,0.1,0.6
			s0,0.4-0.1,0.6s-0.2,0.3-0.3,0.5c-0.1,0.1-0.3,0.2-0.5,0.3c-0.2,0.1-0.4,0.1-0.6,0.1s-0.4,0-0.6-0.1s-0.3-0.2-0.5-0.3
			c-0.1-0.1-0.2-0.3-0.3-0.5c-0.1-0.2-0.1-0.4-0.1-0.6C265.4,69,265.5,68.8,265.6,68.6"/>
	</g>
	<g>
		<polygon class="st0" points="224.8,3.7 224.8,5.3 220.1,5.3 220.1,7.2 224.4,7.2 224.4,8.7 220.1,8.7 220.1,10.9 224.9,10.9 
			224.9,12.5 218.2,12.5 218.2,3.7 		"/>
		<path class="st0" d="M227.6,6.1V7l0,0c0.2-0.3,0.5-0.6,0.8-0.8c0.3-0.2,0.7-0.3,1.1-0.3c0.4,0,0.8,0.1,1.1,0.2
			c0.3,0.2,0.6,0.4,0.8,0.8c0.2-0.3,0.4-0.5,0.8-0.7c0.3-0.2,0.7-0.3,1.2-0.3c0.3,0,0.7,0,0.9,0.1c0.3,0.1,0.5,0.2,0.7,0.4
			c0.2,0.2,0.4,0.4,0.5,0.7c0.1,0.3,0.2,0.6,0.2,1.1v4.3H234V8.9c0-0.2,0-0.4,0-0.6c0-0.2-0.1-0.4-0.1-0.5c-0.1-0.1-0.2-0.3-0.3-0.3
			s-0.3-0.1-0.6-0.1s-0.4,0-0.6,0.1c-0.2,0.1-0.3,0.2-0.4,0.4c-0.1,0.2-0.1,0.3-0.2,0.5c0,0.2,0,0.4,0,0.6v3.6H230V8.9
			c0-0.2,0-0.4,0-0.6c0-0.2,0-0.4-0.1-0.5c-0.1-0.2-0.2-0.3-0.3-0.4s-0.4-0.1-0.6-0.1c-0.1,0-0.2,0-0.3,0.1c-0.1,0-0.3,0.1-0.4,0.2
			c-0.1,0.1-0.2,0.3-0.3,0.4c-0.1,0.1-0.1,0.4-0.1,0.8v3.7H226V6.1H227.6z"/>
		<path class="st0" d="M238.6,6.1V7l0,0c0.2-0.3,0.5-0.6,0.8-0.8c0.3-0.2,0.7-0.2,1.1-0.2c0.5,0,0.9,0.1,1.3,0.3
			c0.4,0.2,0.7,0.4,0.9,0.8c0.2,0.3,0.4,0.7,0.5,1.1c0.1,0.4,0.2,0.9,0.2,1.3c0,0.4-0.1,0.8-0.2,1.2c-0.1,0.4-0.3,0.7-0.5,1.1
			c-0.2,0.3-0.5,0.5-0.9,0.7s-0.8,0.3-1.2,0.3s-0.8-0.1-1.1-0.2c-0.3-0.2-0.6-0.4-0.8-0.7l0,0v3h-1.8V6.1H238.6z M240.9,11.2
			c0.2-0.1,0.4-0.3,0.5-0.5s0.2-0.4,0.3-0.7c0-0.2,0.1-0.5,0.1-0.8s0-0.5-0.1-0.8s-0.1-0.5-0.3-0.7s-0.3-0.4-0.5-0.5
			S240.5,7,240.2,7s-0.5,0.1-0.7,0.2s-0.4,0.3-0.5,0.5s-0.2,0.4-0.3,0.7c-0.1,0.2-0.1,0.5-0.1,0.8s0,0.5,0.1,0.8
			c0.1,0.2,0.1,0.5,0.3,0.7c0.1,0.2,0.3,0.3,0.5,0.5c0.2,0.1,0.4,0.2,0.7,0.2C240.4,11.4,240.7,11.3,240.9,11.2"/>
		<path class="st0" d="M246,6.1v1.2l0,0c0.1-0.2,0.2-0.4,0.3-0.6s0.3-0.3,0.5-0.4s0.4-0.2,0.6-0.3c0.2-0.1,0.4-0.1,0.6-0.1
			c0.1,0,0.2,0,0.4,0.1v1.6c-0.1,0-0.2,0-0.3,0s-0.2,0-0.3,0c-0.3,0-0.6,0.1-0.8,0.2s-0.4,0.3-0.5,0.4c-0.1,0.2-0.2,0.4-0.3,0.7
			c-0.1,0.2-0.1,0.5-0.1,0.8v2.9h-1.8V6.1H246z"/>
		<path class="st0" d="M250.8,11c0.3,0.3,0.6,0.4,1.1,0.4c0.4,0,0.7-0.1,0.9-0.3c0.3-0.2,0.4-0.4,0.5-0.6h1.6
			c-0.3,0.8-0.6,1.3-1.1,1.7c-0.5,0.3-1.1,0.5-1.9,0.5c-0.5,0-1-0.1-1.4-0.2c-0.4-0.2-0.7-0.4-1-0.7s-0.5-0.7-0.7-1.1
			c-0.2-0.4-0.2-0.9-0.2-1.4s0.1-0.9,0.2-1.3c0.2-0.4,0.4-0.8,0.7-1.1c0.3-0.3,0.6-0.5,1-0.7s0.8-0.3,1.3-0.3s1,0.1,1.4,0.3
			c0.4,0.2,0.7,0.5,1,0.9s0.4,0.8,0.6,1.2c0.1,0.5,0.2,0.9,0.1,1.4h-4.6C250.4,10.3,250.6,10.8,250.8,11 M252.8,7.6
			c-0.2-0.2-0.5-0.3-1-0.3c-0.3,0-0.5,0-0.7,0.1s-0.3,0.2-0.4,0.4s-0.2,0.3-0.2,0.4c0,0.2-0.1,0.3-0.1,0.4h2.9
			C253.2,8.2,253,7.9,252.8,7.6"/>
		<path class="st0" d="M257.5,11c0.1,0.1,0.2,0.3,0.3,0.3c0.1,0.1,0.3,0.2,0.4,0.2c0.2,0,0.3,0.1,0.5,0.1c0.1,0,0.3,0,0.4,0
			s0.3-0.1,0.4-0.1c0.1-0.1,0.2-0.1,0.3-0.3c0.1-0.1,0.1-0.2,0.1-0.4c0-0.3-0.2-0.5-0.5-0.6c-0.4-0.1-0.8-0.3-1.5-0.4
			c-0.3-0.1-0.5-0.1-0.8-0.2c-0.2-0.1-0.5-0.2-0.7-0.3s-0.3-0.3-0.5-0.5c-0.1-0.2-0.2-0.4-0.2-0.7c0-0.4,0.1-0.8,0.2-1
			c0.2-0.3,0.4-0.5,0.6-0.6c0.3-0.2,0.6-0.3,0.9-0.3c0.3-0.1,0.7-0.1,1-0.1s0.7,0,1,0.1s0.6,0.2,0.9,0.3c0.3,0.2,0.5,0.4,0.6,0.6
			s0.3,0.6,0.3,1h-1.7c0-0.3-0.2-0.6-0.4-0.7c-0.2-0.1-0.5-0.2-0.8-0.2c-0.1,0-0.2,0-0.3,0c-0.1,0-0.2,0-0.3,0.1
			c-0.1,0-0.2,0.1-0.2,0.2c-0.1,0.1-0.1,0.2-0.1,0.3c0,0.2,0.1,0.3,0.2,0.4s0.3,0.2,0.5,0.2c0.2,0.1,0.4,0.1,0.6,0.2
			c0.2,0,0.5,0.1,0.7,0.2c0.3,0.1,0.5,0.1,0.8,0.2c0.2,0.1,0.5,0.2,0.7,0.3s0.3,0.3,0.5,0.5c0.1,0.2,0.2,0.5,0.2,0.8
			c0,0.4-0.1,0.8-0.3,1.1c-0.2,0.3-0.4,0.5-0.7,0.7c-0.3,0.2-0.6,0.3-0.9,0.4c-0.4,0.1-0.7,0.1-1.1,0.1s-0.7,0-1.1-0.1
			s-0.7-0.2-1-0.4s-0.5-0.4-0.7-0.7s-0.3-0.6-0.3-1.1h1.7C257.4,10.7,257.5,10.8,257.5,11"/>
		<path class="st0" d="M263,7.1c0.2-0.3,0.4-0.5,0.7-0.7c0.3-0.2,0.6-0.3,1-0.4c0.3,0,0.6,0,1,0c0.3,0,0.6,0,1,0.1
			c0.3,0,0.6,0.1,0.9,0.3s0.5,0.3,0.7,0.6c0.2,0.2,0.3,0.5,0.3,0.9v3.3c0,0.3,0,0.6,0,0.8c0,0.3,0.1,0.5,0.2,0.6H267
			c0-0.1-0.1-0.2-0.1-0.3s0-0.2,0-0.3c-0.3,0.3-0.6,0.5-1,0.6s-0.8,0.2-1.2,0.2c-0.3,0-0.6,0-0.9-0.1s-0.5-0.2-0.7-0.4
			s-0.4-0.4-0.5-0.6s-0.2-0.5-0.2-0.9s0.1-0.7,0.2-0.9s0.3-0.4,0.5-0.6s0.4-0.2,0.7-0.3c0.3-0.1,0.5-0.1,0.8-0.2
			c0.3,0,0.5-0.1,0.8-0.1s0.5-0.1,0.7-0.1s0.4-0.1,0.5-0.2c0.1-0.1,0.2-0.2,0.2-0.4c0-0.2,0-0.3-0.1-0.5c-0.1-0.1-0.1-0.2-0.3-0.3
			c-0.1-0.1-0.2-0.1-0.4-0.1c-0.1,0-0.3,0-0.4,0c-0.4,0-0.6,0.1-0.8,0.2c-0.2,0.1-0.3,0.4-0.4,0.7h-1.8C262.7,7.7,262.8,7.3,263,7.1
			 M266.4,9.6c-0.1,0-0.2,0.1-0.4,0.1s-0.3,0-0.4,0.1c-0.1,0-0.3,0-0.4,0.1c-0.1,0-0.3,0.1-0.4,0.1s-0.2,0.1-0.3,0.2
			c-0.1,0.1-0.2,0.2-0.2,0.3c-0.1,0.1-0.1,0.2-0.1,0.4s0,0.3,0.1,0.4c0.1,0.1,0.1,0.2,0.2,0.3s0.2,0.1,0.4,0.1c0.1,0,0.3,0,0.4,0
			c0.4,0,0.6-0.1,0.8-0.2s0.3-0.3,0.4-0.4c0.1-0.2,0.1-0.3,0.2-0.5c0-0.2,0-0.3,0-0.4V9.4C266.6,9.5,266.6,9.5,266.4,9.6"/>
	</g>
	<g>
		<path class="st0" d="M223,81.8c-0.1-0.2-0.2-0.3-0.4-0.4c-0.1-0.1-0.3-0.2-0.5-0.3c-0.2-0.1-0.4-0.1-0.6-0.1
			c-0.4,0-0.7,0.1-0.9,0.2c-0.3,0.1-0.4,0.3-0.6,0.6c-0.2,0.2-0.3,0.5-0.3,0.8c-0.1,0.3-0.1,0.6-0.1,0.9s0,0.6,0.1,0.9
			s0.2,0.5,0.3,0.8c0.2,0.2,0.4,0.4,0.6,0.5c0.3,0.1,0.6,0.2,0.9,0.2c0.5,0,0.9-0.1,1.1-0.4s0.4-0.7,0.5-1.2h1.5
			c0,0.4-0.1,0.9-0.3,1.2s-0.4,0.7-0.7,0.9c-0.3,0.3-0.6,0.4-1,0.6c-0.4,0.1-0.8,0.2-1.2,0.2c-0.6,0-1.1-0.1-1.5-0.3
			c-0.4-0.2-0.8-0.5-1.1-0.8s-0.5-0.7-0.7-1.2s-0.2-0.9-0.2-1.5c0-0.5,0.1-1,0.2-1.5c0.2-0.5,0.4-0.9,0.7-1.2
			c0.3-0.3,0.7-0.6,1.1-0.8c0.4-0.2,0.9-0.3,1.5-0.3c0.4,0,0.8,0.1,1.1,0.2c0.4,0.1,0.7,0.3,1,0.5s0.5,0.5,0.7,0.8s0.3,0.7,0.3,1.1
			H223C223.1,82.2,223.1,82,223,81.8"/>
		<path class="st0" d="M226.9,85.9c0.2,0.2,0.5,0.3,0.9,0.3c0.3,0,0.5-0.1,0.7-0.2s0.3-0.3,0.4-0.5h1.3c-0.2,0.6-0.5,1.1-0.9,1.3
			c-0.4,0.3-0.9,0.4-1.5,0.4c-0.4,0-0.8-0.1-1.1-0.2s-0.6-0.3-0.8-0.6c-0.2-0.2-0.4-0.5-0.5-0.9c-0.1-0.3-0.2-0.7-0.2-1.1
			s0.1-0.8,0.2-1.1c0.1-0.3,0.3-0.6,0.5-0.9s0.5-0.4,0.8-0.6c0.3-0.1,0.7-0.2,1.1-0.2c0.4,0,0.8,0.1,1.2,0.3
			c0.3,0.2,0.6,0.4,0.8,0.7s0.4,0.6,0.5,1s0.1,0.8,0.1,1.2h-3.8C226.6,85.3,226.7,85.7,226.9,85.9 M228.5,83.1
			c-0.2-0.2-0.4-0.3-0.8-0.3c-0.2,0-0.4,0-0.6,0.1c-0.2,0.1-0.3,0.2-0.4,0.3c-0.1,0.1-0.2,0.2-0.2,0.4c0,0.1-0.1,0.2-0.1,0.3h2.3
			C228.8,83.6,228.7,83.3,228.5,83.1"/>
		<path class="st0" d="M232.1,81.9v1l0,0c0.1-0.2,0.2-0.3,0.3-0.4s0.2-0.3,0.4-0.4c0.1-0.1,0.3-0.2,0.5-0.2c0.2-0.1,0.3-0.1,0.5-0.1
			c0.1,0,0.2,0,0.3,0.1v1.3c-0.1,0-0.1,0-0.2,0c-0.1,0-0.2,0-0.3,0c-0.3,0-0.5,0-0.7,0.1s-0.3,0.2-0.4,0.4c-0.1,0.2-0.2,0.3-0.2,0.5
			s-0.1,0.4-0.1,0.7v2.4h-1.4v-5.2L232.1,81.9L232.1,81.9z"/>
		<path class="st0" d="M237.9,81.9v1h-1.1v2.6c0,0.2,0,0.4,0.1,0.5s0.2,0.1,0.5,0.1c0.1,0,0.2,0,0.2,0s0.1,0,0.2,0v1.1
			c-0.1,0-0.3,0-0.4,0c-0.1,0-0.3,0-0.4,0c-0.2,0-0.4,0-0.6,0c-0.2,0-0.4-0.1-0.5-0.2c-0.2-0.1-0.3-0.2-0.4-0.4
			c-0.1-0.2-0.1-0.4-0.1-0.6v-3.1h-0.9v-1h0.9v-1.6h1.4v1.6H237.9z"/>
		<path class="st0" d="M238.7,79.9h1.4v1.2h-1.4V79.9z M240.1,87.1h-1.4v-5.2h1.4V87.1z"/>
		<path class="st0" d="M240.8,82.9v-1h0.9v-0.4c0-0.5,0.1-0.8,0.4-1.1c0.3-0.3,0.7-0.4,1.3-0.4c0.1,0,0.3,0,0.4,0c0.1,0,0.3,0,0.4,0
			v1c-0.2,0-0.3,0-0.5,0s-0.3,0-0.4,0.1c-0.1,0.1-0.1,0.2-0.1,0.5v0.3h1v1h-1v4.3h-1.4v-4.3H240.8L240.8,82.9z"/>
		<path class="st0" d="M244.7,79.9h1.4v1.2h-1.4V79.9z M246.2,87.1h-1.4v-5.2h1.4V87.1z"/>
		<path class="st0" d="M249.4,82.9c-0.2,0-0.4,0.1-0.6,0.2s-0.3,0.2-0.4,0.4c-0.1,0.2-0.2,0.3-0.2,0.5s-0.1,0.4-0.1,0.6
			s0,0.4,0.1,0.6s0.1,0.4,0.2,0.5c0.1,0.2,0.2,0.3,0.4,0.4s0.3,0.2,0.6,0.2s0.6-0.1,0.8-0.3c0.2-0.2,0.3-0.4,0.4-0.8h1.4
			c-0.1,0.7-0.4,1.2-0.8,1.6c-0.4,0.4-1,0.5-1.7,0.5c-0.4,0-0.7-0.1-1.1-0.2s-0.6-0.3-0.8-0.5s-0.4-0.5-0.5-0.8s-0.2-0.7-0.2-1.1
			s0.1-0.8,0.2-1.1c0.1-0.3,0.3-0.6,0.5-0.9s0.5-0.4,0.8-0.6c0.3-0.1,0.7-0.2,1.1-0.2c0.3,0,0.6,0,0.9,0.1c0.3,0.1,0.5,0.2,0.8,0.4
			c0.2,0.2,0.4,0.4,0.5,0.6s0.2,0.5,0.2,0.9h-1.4C250.4,83.1,250,82.9,249.4,82.9"/>
		<path class="st0" d="M252.7,82.7c0.1-0.2,0.3-0.4,0.6-0.5c0.2-0.1,0.5-0.2,0.8-0.3c0.3-0.1,0.6-0.1,0.9-0.1c0.3,0,0.5,0,0.8,0.1
			c0.3,0,0.5,0.1,0.7,0.2s0.4,0.3,0.5,0.4c0.1,0.2,0.2,0.4,0.2,0.8V86c0,0.2,0,0.5,0,0.7s0.1,0.4,0.1,0.5h-1.5c0-0.1,0-0.2-0.1-0.2
			c0-0.1,0-0.2,0-0.3c-0.2,0.2-0.5,0.4-0.8,0.5s-0.6,0.1-1,0.1c-0.3,0-0.5,0-0.7-0.1s-0.4-0.2-0.6-0.3c-0.2-0.1-0.3-0.3-0.4-0.5
			c-0.1-0.2-0.1-0.4-0.1-0.7c0-0.3,0.1-0.5,0.2-0.7c0.1-0.2,0.2-0.3,0.4-0.5c0.2-0.1,0.4-0.2,0.6-0.3c0.2-0.1,0.4-0.1,0.6-0.1
			s0.4-0.1,0.6-0.1c0.2,0,0.4-0.1,0.6-0.1c0.2,0,0.3-0.1,0.4-0.2c0.1-0.1,0.1-0.2,0.1-0.3c0-0.2,0-0.3-0.1-0.4s-0.1-0.2-0.2-0.2
			c-0.1-0.1-0.2-0.1-0.3-0.1s-0.2,0-0.4,0c-0.3,0-0.5,0.1-0.7,0.2s-0.3,0.3-0.3,0.6h-1.4C252.5,83.2,252.5,82.9,252.7,82.7
			 M255.5,84.7c-0.1,0-0.2,0.1-0.3,0.1s-0.2,0-0.3,0.1s-0.2,0-0.3,0.1c-0.1,0-0.2,0-0.3,0.1c-0.1,0-0.2,0.1-0.3,0.1
			c-0.1,0.1-0.1,0.1-0.2,0.2c0,0.1-0.1,0.2-0.1,0.3c0,0.1,0,0.2,0.1,0.3c0,0.1,0.1,0.2,0.2,0.2c0.1,0.1,0.2,0.1,0.3,0.1s0.2,0,0.3,0
			c0.3,0,0.5,0,0.7-0.1s0.3-0.2,0.3-0.3c0.1-0.1,0.1-0.3,0.1-0.4s0-0.2,0-0.3v-0.5C255.7,84.6,255.6,84.7,255.5,84.7"/>
		<path class="st0" d="M261.6,86.5c-0.2,0.3-0.4,0.5-0.7,0.6c-0.3,0.1-0.6,0.2-0.9,0.2c-0.4,0-0.7-0.1-1-0.2
			c-0.3-0.2-0.5-0.4-0.7-0.6c-0.2-0.3-0.3-0.6-0.4-0.9s-0.1-0.7-0.1-1.1s0-0.7,0.1-1s0.2-0.6,0.4-0.9c0.2-0.3,0.4-0.4,0.7-0.6
			c0.3-0.2,0.6-0.2,1-0.2c0.3,0,0.6,0.1,0.9,0.2s0.5,0.3,0.7,0.6l0,0V80h1.4v7.2h-1.4V86.5L261.6,86.5L261.6,86.5z M261.5,83.9
			c0-0.2-0.1-0.4-0.2-0.5c-0.1-0.2-0.2-0.3-0.4-0.4c-0.2-0.1-0.4-0.1-0.6-0.1s-0.4,0-0.6,0.1s-0.3,0.2-0.4,0.4
			c-0.1,0.2-0.2,0.3-0.2,0.5s-0.1,0.4-0.1,0.6s0,0.4,0.1,0.6c0,0.2,0.1,0.4,0.2,0.5c0.1,0.2,0.2,0.3,0.4,0.4
			c0.2,0.1,0.4,0.1,0.6,0.1s0.4,0,0.6-0.1s0.3-0.2,0.4-0.4c0.1-0.2,0.2-0.3,0.2-0.5s0.1-0.4,0.1-0.6S261.6,84.1,261.5,83.9"/>
		<path class="st0" d="M264,82.7c0.1-0.2,0.3-0.4,0.6-0.5c0.2-0.1,0.5-0.2,0.8-0.3s0.6-0.1,0.9-0.1s0.5,0,0.8,0.1s0.5,0.1,0.7,0.2
			s0.4,0.3,0.5,0.4c0.1,0.2,0.2,0.4,0.2,0.8V86c0,0.2,0,0.5,0,0.7s0.1,0.4,0.1,0.5h-1.5c0-0.1,0-0.2-0.1-0.2c0-0.1,0-0.2,0-0.3
			c-0.2,0.2-0.5,0.4-0.8,0.5s-0.6,0.1-1,0.1c-0.3,0-0.5,0-0.7-0.1s-0.4-0.2-0.6-0.3s-0.3-0.3-0.4-0.5s-0.1-0.4-0.1-0.7
			c0-0.3,0.1-0.5,0.2-0.7s0.2-0.3,0.4-0.5s0.4-0.2,0.6-0.3c0.2-0.1,0.4-0.1,0.6-0.1s0.4-0.1,0.6-0.1s0.4-0.1,0.6-0.1
			s0.3-0.1,0.4-0.2s0.1-0.2,0.1-0.3c0-0.2,0-0.3-0.1-0.4s-0.1-0.2-0.2-0.2c-0.1-0.1-0.2-0.1-0.3-0.1c-0.1,0-0.2,0-0.4,0
			c-0.3,0-0.5,0.1-0.7,0.2s-0.3,0.3-0.3,0.6h-1.4C263.8,83.2,263.9,82.9,264,82.7 M266.9,84.7c-0.1,0-0.2,0.1-0.3,0.1
			c-0.1,0-0.2,0-0.3,0.1s-0.2,0-0.3,0.1c-0.1,0-0.2,0-0.3,0.1c-0.1,0-0.2,0.1-0.3,0.1c-0.1,0.1-0.1,0.1-0.2,0.2
			c0,0.1-0.1,0.2-0.1,0.3c0,0.1,0,0.2,0.1,0.3c0,0.1,0.1,0.2,0.2,0.2c0.1,0.1,0.2,0.1,0.3,0.1s0.2,0,0.3,0c0.3,0,0.5,0,0.7-0.1
			s0.3-0.2,0.3-0.3s0.1-0.3,0.1-0.4s0-0.2,0-0.3v-0.5C267,84.6,267,84.7,266.9,84.7"/>
	</g>
</g>
<g>
	<rect x="192.1" y="25.4" class="st1" width="1" height="40.3"/>
</g>
<g>
	<g>
		<g>
			<defs>
				<rect id="SVGID_1_" x="8.7" y="3.8" width="145.9" height="44.2"/>
			</defs>
			<clipPath id="SVGID_00000114043412672657479610000016157358128864253326_">
				<use xlink:href="#SVGID_1_"  style="overflow:visible;"/>
			</clipPath>
			
				<rect x="92.8" y="3.8" style="clip-path:url(#SVGID_00000114043412672657479610000016157358128864253326_);" width="3.2" height="20.6"/>
		</g>
		<g>
			<defs>
				<rect id="SVGID_00000026872424115351536470000008271012556208876215_" x="8.7" y="3.8" width="145.9" height="44.2"/>
			</defs>
			<clipPath id="SVGID_00000160184594887491136090000002326987277671815829_">
				<use xlink:href="#SVGID_00000026872424115351536470000008271012556208876215_"  style="overflow:visible;"/>
			</clipPath>
			<polygon style="clip-path:url(#SVGID_00000160184594887491136090000002326987277671815829_);" points="112.1,3.8 112.1,18.4 
				103.1,3.8 99.8,3.8 99.8,24.4 103,24.4 103,10 112.1,24.4 115.4,24.4 115.4,3.8 			"/>
		</g>
		<g>
			<defs>
				<rect id="SVGID_00000036942605041275845110000014581273733766743716_" x="8.7" y="3.8" width="145.9" height="44.2"/>
			</defs>
			<clipPath id="SVGID_00000048468936071540018700000008918057116253700740_">
				<use xlink:href="#SVGID_00000036942605041275845110000014581273733766743716_"  style="overflow:visible;"/>
			</clipPath>
			<path style="clip-path:url(#SVGID_00000048468936071540018700000008918057116253700740_);" d="M126.7,21.4c2.9,0,4.1-3,4.1-7.2
				c0-5.7-1.5-7.4-4.1-7.4h-4.8v14.6H126.7z M118.6,3.8h8.3c6,0,7.1,5.6,7.1,10.4c0,5.6-2,10.2-7.1,10.2h-8.3"/>
		</g>
		<g>
			<defs>
				<rect id="SVGID_00000036238018283158190280000008401268871490857647_" x="8.7" y="3.8" width="145.9" height="44.2"/>
			</defs>
			<clipPath id="SVGID_00000142890558437368095670000013878461548727106492_">
				<use xlink:href="#SVGID_00000036238018283158190280000008401268871490857647_"  style="overflow:visible;"/>
			</clipPath>
			<path style="clip-path:url(#SVGID_00000142890558437368095670000013878461548727106492_);" d="M92.1,31.1c0-3.3,2.2-4.1,4.1-4
				c0,0,7.8,0.3,8.9,0.4v2.7h-8.3c-1.4,0-1.4,0.8-1.4,1.6v4.1l8.5,0.3v2.7L95.3,39v4.1c0,1.5,0.9,1.5,1.7,1.5h8v2.6
				c-1,0.1-8.6,0.5-8.6,0.5c-1.8,0.1-4.4-0.3-4.4-3.9V31.1z"/>
		</g>
		<g>
			<defs>
				<rect id="SVGID_00000155841159830511169540000014034764666465236100_" x="8.7" y="3.8" width="145.9" height="44.2"/>
			</defs>
			<clipPath id="SVGID_00000130618250447877368970000010713721343931896764_">
				<use xlink:href="#SVGID_00000155841159830511169540000014034764666465236100_"  style="overflow:visible;"/>
			</clipPath>
			<polygon style="clip-path:url(#SVGID_00000130618250447877368970000010713721343931896764_);" points="107.4,27 110.7,27 
				119.7,41.6 119.7,27 123,27 123,47.6 119.7,47.6 110.6,33.2 110.6,47.6 107.4,47.6 			"/>
		</g>
		<g>
			<defs>
				<rect id="SVGID_00000006706096153381899210000008062138568298024339_" x="8.7" y="3.8" width="145.9" height="44.2"/>
			</defs>
			<clipPath id="SVGID_00000102514794051349510080000000066167054827715713_">
				<use xlink:href="#SVGID_00000006706096153381899210000008062138568298024339_"  style="overflow:visible;"/>
			</clipPath>
			<path style="clip-path:url(#SVGID_00000102514794051349510080000000066167054827715713_);" d="M125.4,32c0-4.1,2.4-5.2,5.5-5.2
				c2.4,0,6.1,0.4,7.5,0.8v2.6c-1.8-0.1-6.2-0.3-6.9-0.3c-1.8-0.1-3,0.1-3,2.3v1.3c0,2,0.8,2.3,2.4,2.3h3.5c3.9,0,4.6,2.9,4.6,5.2
				v1.6c0,4.4-2.9,5.2-5.6,5.2c-2.7,0-5.7-0.3-7.5-0.8v-2.6c1.1,0.1,4.5,0.3,7,0.3c1.2,0,2.9-0.1,2.9-2v-1.4c0-1.3-0.4-2.2-2-2.2
				h-3.4c-4.7,0-5.1-3.2-5.1-5.2V32z"/>
		</g>
		<g>
			<defs>
				<rect id="SVGID_00000092415993380204640240000016937401201718304914_" x="8.7" y="3.8" width="145.9" height="44.2"/>
			</defs>
			<clipPath id="SVGID_00000059275961659873780520000005626811924960074115_">
				<use xlink:href="#SVGID_00000092415993380204640240000016937401201718304914_"  style="overflow:visible;"/>
			</clipPath>
			<path style="clip-path:url(#SVGID_00000059275961659873780520000005626811924960074115_);" d="M141.6,31.1c0-3.3,2.2-4.1,4.1-4
				c0,0,7.8,0.3,8.9,0.4v2.7h-8.3c-1.4,0-1.4,0.8-1.4,1.6v4.1l8.5,0.3v2.7l-8.5,0.3v4.1c0,1.5,0.9,1.5,1.7,1.5h8v2.6
				c-1,0.1-8.6,0.5-8.6,0.5c-1.8,0.1-4.4-0.3-4.4-3.9V31.1z"/>
		</g>
		<g>
			<defs>
				<rect id="SVGID_00000119085746309222294490000009455226200256590004_" x="8.7" y="3.8" width="145.9" height="44.2"/>
			</defs>
			<clipPath id="SVGID_00000008111416212066036270000012167758159912636837_">
				<use xlink:href="#SVGID_00000119085746309222294490000009455226200256590004_"  style="overflow:visible;"/>
			</clipPath>
			<path style="clip-path:url(#SVGID_00000008111416212066036270000012167758159912636837_);fill:#D00F1F;" d="M8.7,3.8h23.5V22
				c0,6.7-1.4,11.9-4.2,15.8c-2.8,3.9-7.5,7.3-14.2,10.2l-5.1-9.6c4.2-1.9,7-3.9,8.6-5.8c1.6-1.9,2.4-4.2,2.6-6.8H8.7V3.8z"/>
		</g>
		<g>
			<defs>
				<rect id="SVGID_00000029736105882210111440000007180292901522655372_" x="8.7" y="3.8" width="145.9" height="44.2"/>
			</defs>
			<clipPath id="SVGID_00000182492678523722339860000007568635068072151470_">
				<use xlink:href="#SVGID_00000029736105882210111440000007180292901522655372_"  style="overflow:visible;"/>
			</clipPath>
			<path style="clip-path:url(#SVGID_00000182492678523722339860000007568635068072151470_);fill:#D00F1F;" d="M37.3,3.8h23.5V22
				c0,6.7-1.4,11.9-4.2,15.8c-2.8,3.9-7.5,7.3-14.2,10.2l-5.1-9.6c4.2-1.9,7-3.9,8.6-5.8c1.6-1.9,2.4-4.2,2.6-6.8H37.3V3.8z"/>
		</g>
		<g>
			<defs>
				<rect id="SVGID_00000179647390299521159940000013242597596874323347_" x="8.7" y="3.8" width="145.9" height="44.2"/>
			</defs>
			<clipPath id="SVGID_00000036242647805466739010000016861330266631688839_">
				<use xlink:href="#SVGID_00000179647390299521159940000013242597596874323347_"  style="overflow:visible;"/>
			</clipPath>
			<path style="clip-path:url(#SVGID_00000036242647805466739010000016861330266631688839_);" d="M76.4,7.9c0-3.1,2.1-4.1,4.1-4.1
				c0,0,7.8,0.3,9,0.5V7h-8.4c-1.5,0-1.5,0.8-1.5,1.6v4.1l8.6,0.3v2.7l-8.6,0.3v8.6h-3.3V7.9z"/>
		</g>
		<g>
			<defs>
				<rect id="SVGID_00000155131300470666105080000013368900034272263808_" x="8.7" y="3.8" width="145.9" height="44.2"/>
			</defs>
			<clipPath id="SVGID_00000070838565872023567420000012576007361239866257_">
				<use xlink:href="#SVGID_00000155131300470666105080000013368900034272263808_"  style="overflow:visible;"/>
			</clipPath>
			<path style="clip-path:url(#SVGID_00000070838565872023567420000012576007361239866257_);" d="M75.8,32.1c0-4.1,2.4-5.2,5.6-5.2
				c2.4,0,6.2,0.4,7.6,0.8v2.6c-1.8-0.1-6.3-0.3-6.9-0.3c-1.8-0.1-3,0.1-3,2.3v1.3c0,2,0.8,2.3,2.4,2.3H85c3.9,0,4.7,3,4.7,5.2v1.6
				c0,4.4-2.9,5.2-5.7,5.2c-2.7,0-5.8-0.3-7.6-0.8v-2.6c1.1,0.1,4.5,0.3,7.1,0.3c1.2,0,2.9-0.1,2.9-2.1v-1.4c0-1.3-0.4-2.2-2-2.2H81
				c-4.8,0-5.2-3.2-5.2-5.2V32.1z"/>
		</g>
		<g>
			<defs>
				<rect id="SVGID_00000021833028066396444920000018095711006078466697_" x="8.7" y="3.8" width="145.9" height="44.2"/>
			</defs>
			<clipPath id="SVGID_00000067224024431898090270000000050111661506063492_">
				<use xlink:href="#SVGID_00000021833028066396444920000018095711006078466697_"  style="overflow:visible;"/>
			</clipPath>
			<path style="clip-path:url(#SVGID_00000067224024431898090270000000050111661506063492_);" d="M137.8,24.5l7.6-20.7h2.1l7.2,20.7
				h-2.5l-1.8-5.8h-8.2l-1.9,5.8H137.8z M142.9,16.7h6.7L146.3,7L142.9,16.7z"/>
		</g>
	</g>
	<g>
		<g>
			<path d="M11.4,53.2c0.4,0,0.7,0,0.9,0.1c0.3,0.1,0.4,0.1,0.5,0.1l-0.2,1c-0.1-0.1-0.3-0.1-0.4-0.2s-0.4-0.1-0.7-0.1
				c-0.6,0-1,0.2-1.2,0.5C10,55.1,9.9,55.5,9.9,56v0.6h2.6v1H9.9v5.8H8.7V56c0-0.9,0.2-1.5,0.6-2C9.8,53.5,10.4,53.2,11.4,53.2z"/>
			<path d="M16.3,56.4c0.1,0,0.2,0,0.4,0c0.1,0,0.3,0,0.4,0.1c0.1,0,0.3,0,0.4,0.1c0.1,0,0.2,0,0.2,0.1l-0.2,1.1
				c-0.1,0-0.3-0.1-0.5-0.1s-0.5-0.1-0.9-0.1c-0.2,0-0.5,0-0.7,0.1c-0.2,0-0.4,0.1-0.4,0.1v5.7h-1.2v-6.5c0.3-0.1,0.6-0.2,1.1-0.3
				C15.2,56.5,15.7,56.4,16.3,56.4z"/>
			<path d="M24.8,60c0,0.5-0.1,1-0.2,1.5c-0.2,0.4-0.4,0.8-0.7,1.1c-0.3,0.3-0.6,0.6-1,0.7c-0.4,0.2-0.8,0.3-1.3,0.3
				c-0.5,0-0.9-0.1-1.3-0.3c-0.4-0.2-0.7-0.4-1-0.7c-0.3-0.3-0.5-0.7-0.7-1.1c-0.2-0.4-0.2-0.9-0.2-1.5c0-0.5,0.1-1,0.2-1.5
				c0.2-0.4,0.4-0.8,0.7-1.1c0.3-0.3,0.6-0.6,1-0.7c0.4-0.2,0.8-0.3,1.3-0.3c0.5,0,0.9,0.1,1.3,0.3c0.4,0.2,0.7,0.4,1,0.7
				c0.3,0.3,0.5,0.7,0.7,1.1C24.7,59,24.8,59.5,24.8,60z M23.5,60c0-0.8-0.2-1.4-0.5-1.8c-0.3-0.4-0.8-0.7-1.4-0.7s-1.1,0.2-1.4,0.7
				c-0.3,0.4-0.5,1.1-0.5,1.8c0,0.8,0.2,1.4,0.5,1.8c0.3,0.4,0.8,0.7,1.4,0.7s1.1-0.2,1.4-0.7C23.3,61.4,23.5,60.8,23.5,60z"/>
			<path d="M26.5,56.8c0.3-0.1,0.6-0.1,1.1-0.2c0.5-0.1,1-0.1,1.6-0.1c0.4,0,0.8,0.1,1.1,0.2c0.3,0.1,0.5,0.3,0.7,0.5
				c0.1,0,0.2-0.1,0.3-0.2c0.1-0.1,0.3-0.2,0.5-0.2c0.2-0.1,0.4-0.1,0.6-0.2c0.2-0.1,0.5-0.1,0.8-0.1c0.5,0,0.9,0.1,1.3,0.2
				c0.3,0.2,0.6,0.4,0.8,0.6c0.2,0.3,0.3,0.6,0.4,1c0.1,0.4,0.1,0.8,0.1,1.3v3.8h-1.2v-3.6c0-0.4,0-0.7-0.1-1c0-0.3-0.1-0.5-0.2-0.7
				c-0.1-0.2-0.3-0.3-0.4-0.4c-0.2-0.1-0.4-0.1-0.7-0.1c-0.4,0-0.7,0.1-1,0.2c-0.3,0.1-0.4,0.2-0.5,0.3c0.1,0.2,0.1,0.5,0.2,0.7
				c0,0.3,0.1,0.6,0.1,0.8v3.8h-1.2v-3.6c0-0.4,0-0.7-0.1-1c0-0.3-0.1-0.5-0.2-0.7c-0.1-0.2-0.3-0.3-0.4-0.4
				c-0.2-0.1-0.4-0.1-0.7-0.1c-0.1,0-0.3,0-0.4,0c-0.1,0-0.3,0-0.4,0c-0.1,0-0.2,0-0.3,0c-0.1,0-0.2,0-0.2,0v5.7h-1.2V56.8z"/>
			<path d="M46.7,63.2c-0.2,0.1-0.4,0.1-0.6,0.2c-0.2,0-0.5,0.1-0.7,0.1c-0.2,0-0.5,0.1-0.8,0.1c-0.3,0-0.5,0-0.7,0
				c-0.6,0-1.1-0.1-1.5-0.2c-0.4-0.2-0.8-0.4-1.1-0.7c-0.3-0.3-0.5-0.7-0.7-1.1c-0.2-0.4-0.2-0.9-0.2-1.5c0-0.6,0.1-1.1,0.2-1.5
				c0.1-0.4,0.3-0.8,0.6-1.1c0.3-0.3,0.6-0.6,1-0.7c0.4-0.2,0.8-0.2,1.3-0.2c0.3,0,0.5,0,0.7,0.1c0.2,0.1,0.4,0.1,0.6,0.2v-3.1
				l1.9-0.3V63.2z M42.3,59.9c0,0.6,0.1,1.1,0.4,1.5c0.3,0.4,0.7,0.5,1.2,0.5c0.2,0,0.3,0,0.5,0c0.1,0,0.3,0,0.4,0v-3.5
				c-0.1-0.1-0.3-0.1-0.5-0.2C44.1,58,43.9,58,43.7,58C42.7,58,42.3,58.6,42.3,59.9z"/>
			<path d="M51,56.3c0.6,0,1.1,0.1,1.4,0.2c0.4,0.1,0.7,0.3,0.9,0.6c0.2,0.2,0.4,0.5,0.5,0.9c0.1,0.3,0.1,0.7,0.1,1.2v4
				c-0.3,0.1-0.7,0.1-1.2,0.2c-0.5,0.1-1.1,0.1-1.8,0.1c-0.4,0-0.8,0-1.2-0.1c-0.4-0.1-0.7-0.2-0.9-0.4c-0.3-0.2-0.5-0.4-0.6-0.7
				c-0.1-0.3-0.2-0.6-0.2-1.1c0-0.4,0.1-0.7,0.2-1c0.2-0.3,0.4-0.5,0.6-0.7c0.3-0.2,0.6-0.3,0.9-0.4s0.7-0.1,1.1-0.1
				c0.3,0,0.5,0,0.7,0c0.2,0,0.4,0.1,0.5,0.1V59c0-0.3-0.1-0.6-0.3-0.8c-0.2-0.2-0.5-0.3-1-0.3c-0.3,0-0.7,0-1,0.1
				c-0.3,0-0.6,0.1-0.8,0.2l-0.2-1.6c0.1,0,0.3-0.1,0.4-0.1c0.2,0,0.4-0.1,0.6-0.1c0.2,0,0.4-0.1,0.6-0.1
				C50.5,56.3,50.8,56.3,51,56.3z M51.1,62c0.2,0,0.4,0,0.5,0c0.2,0,0.3,0,0.4,0v-1.5c-0.1,0-0.2,0-0.4-0.1c-0.2,0-0.3,0-0.4,0
				c-0.2,0-0.4,0-0.5,0c-0.2,0-0.3,0.1-0.4,0.1c-0.1,0.1-0.2,0.1-0.3,0.2C50,60.9,50,61.1,50,61.2c0,0.3,0.1,0.5,0.3,0.6
				C50.5,62,50.8,62,51.1,62z"/>
			<path d="M55.7,54.8l1.9-0.3v2H60v1.6h-2.3v2.4c0,0.4,0.1,0.7,0.2,1c0.1,0.2,0.4,0.4,0.9,0.4c0.2,0,0.4,0,0.6-0.1s0.4-0.1,0.6-0.2
				l0.3,1.5c-0.2,0.1-0.5,0.2-0.8,0.2c-0.3,0.1-0.6,0.1-1.1,0.1c-0.5,0-1-0.1-1.3-0.2c-0.3-0.1-0.6-0.3-0.8-0.6
				c-0.2-0.3-0.4-0.6-0.4-0.9c-0.1-0.4-0.1-0.8-0.1-1.2V54.8z"/>
			<path d="M63.7,56.3c0.6,0,1.1,0.1,1.4,0.2c0.4,0.1,0.7,0.3,0.9,0.6c0.2,0.2,0.4,0.5,0.5,0.9c0.1,0.3,0.1,0.7,0.1,1.2v4
				c-0.3,0.1-0.7,0.1-1.2,0.2c-0.5,0.1-1.1,0.1-1.8,0.1c-0.4,0-0.8,0-1.2-0.1c-0.4-0.1-0.7-0.2-0.9-0.4c-0.3-0.2-0.5-0.4-0.6-0.7
				c-0.1-0.3-0.2-0.6-0.2-1.1c0-0.4,0.1-0.7,0.2-1c0.2-0.3,0.4-0.5,0.6-0.7c0.3-0.2,0.6-0.3,0.9-0.4c0.3-0.1,0.7-0.1,1.1-0.1
				c0.3,0,0.5,0,0.7,0c0.2,0,0.4,0.1,0.5,0.1V59c0-0.3-0.1-0.6-0.3-0.8c-0.2-0.2-0.5-0.3-1-0.3c-0.3,0-0.7,0-1,0.1
				c-0.3,0-0.6,0.1-0.8,0.2l-0.2-1.6c0.1,0,0.3-0.1,0.4-0.1c0.2,0,0.4-0.1,0.6-0.1c0.2,0,0.4-0.1,0.6-0.1
				C63.3,56.3,63.5,56.3,63.7,56.3z M63.9,62c0.2,0,0.4,0,0.5,0c0.2,0,0.3,0,0.4,0v-1.5c-0.1,0-0.2,0-0.4-0.1c-0.2,0-0.3,0-0.4,0
				c-0.2,0-0.4,0-0.5,0c-0.2,0-0.3,0.1-0.4,0.1c-0.1,0.1-0.2,0.1-0.3,0.2c-0.1,0.1-0.1,0.2-0.1,0.4c0,0.3,0.1,0.5,0.3,0.6
				C63.3,62,63.5,62,63.9,62z"/>
			<path d="M72.8,56.6h2.6v1h-2.6v3.1c0,0.3,0,0.6,0.1,0.8s0.1,0.4,0.2,0.5c0.1,0.1,0.2,0.2,0.4,0.3s0.3,0.1,0.5,0.1
				c0.4,0,0.7,0,0.9-0.1c0.2-0.1,0.4-0.1,0.5-0.2l0.2,1c-0.1,0.1-0.3,0.1-0.6,0.2c-0.3,0.1-0.7,0.1-1,0.1c-0.5,0-0.8-0.1-1.1-0.2
				c-0.3-0.1-0.5-0.3-0.7-0.5c-0.2-0.2-0.3-0.5-0.4-0.9c-0.1-0.3-0.1-0.7-0.1-1.2v-6.1l1.2-0.2V56.6z"/>
			<path d="M82.7,60c0,0.5-0.1,1-0.2,1.5c-0.2,0.4-0.4,0.8-0.7,1.1c-0.3,0.3-0.6,0.6-1,0.7c-0.4,0.2-0.8,0.3-1.3,0.3
				c-0.5,0-0.9-0.1-1.3-0.3c-0.4-0.2-0.7-0.4-1-0.7c-0.3-0.3-0.5-0.7-0.7-1.1c-0.2-0.4-0.2-0.9-0.2-1.5c0-0.5,0.1-1,0.2-1.5
				c0.2-0.4,0.4-0.8,0.7-1.1c0.3-0.3,0.6-0.6,1-0.7c0.4-0.2,0.8-0.3,1.3-0.3c0.5,0,0.9,0.1,1.3,0.3c0.4,0.2,0.7,0.4,1,0.7
				c0.3,0.3,0.5,0.7,0.7,1.1C82.6,59,82.7,59.5,82.7,60z M81.4,60c0-0.8-0.2-1.4-0.5-1.8c-0.3-0.4-0.8-0.7-1.4-0.7
				c-0.6,0-1.1,0.2-1.4,0.7c-0.3,0.4-0.5,1.1-0.5,1.8c0,0.8,0.2,1.4,0.5,1.8c0.3,0.4,0.8,0.7,1.4,0.7c0.6,0,1.1-0.2,1.4-0.7
				C81.3,61.4,81.4,60.8,81.4,60z"/>
			<path d="M87,60c0-0.6,0.1-1.1,0.3-1.6c0.2-0.5,0.4-0.8,0.7-1.1c0.3-0.3,0.7-0.5,1.1-0.7c0.4-0.2,0.8-0.2,1.2-0.2
				c1,0,1.7,0.3,2.3,0.9c0.6,0.6,0.8,1.5,0.8,2.6c0,0.1,0,0.2,0,0.4c0,0.1,0,0.3,0,0.4H89c0,0.4,0.2,0.7,0.6,1
				c0.3,0.2,0.8,0.4,1.3,0.4c0.4,0,0.7,0,1.1-0.1c0.3-0.1,0.6-0.1,0.8-0.2l0.3,1.6c-0.1,0.1-0.2,0.1-0.4,0.2
				c-0.2,0.1-0.4,0.1-0.6,0.1c-0.2,0-0.4,0.1-0.7,0.1c-0.2,0-0.5,0-0.7,0c-0.6,0-1.2-0.1-1.6-0.3s-0.8-0.4-1.1-0.8
				c-0.3-0.3-0.5-0.7-0.7-1.1C87.1,61,87,60.5,87,60z M91.6,59.3c0-0.2,0-0.3-0.1-0.5c0-0.2-0.1-0.3-0.2-0.4
				c-0.1-0.1-0.2-0.2-0.4-0.3c-0.2-0.1-0.3-0.1-0.6-0.1c-0.2,0-0.4,0-0.6,0.1c-0.2,0.1-0.3,0.2-0.4,0.3c-0.1,0.1-0.2,0.3-0.2,0.4
				c-0.1,0.2-0.1,0.3-0.1,0.5H91.6z"/>
			<path d="M97.7,58.4l1.4-1.9h2l-2.4,3.3c0.5,0.6,1,1.3,1.5,1.9c0.4,0.6,0.8,1.2,1,1.7H99c-0.1-0.1-0.2-0.3-0.3-0.5
				c-0.1-0.2-0.2-0.4-0.4-0.6c-0.1-0.2-0.3-0.4-0.4-0.5c-0.1-0.1-0.3-0.3-0.4-0.4c-0.1,0.1-0.3,0.2-0.4,0.4
				c-0.1,0.1-0.3,0.3-0.4,0.5c-0.1,0.2-0.2,0.4-0.4,0.6c-0.1,0.2-0.2,0.4-0.3,0.6h-2c0.1-0.2,0.3-0.5,0.4-0.8
				c0.2-0.3,0.4-0.6,0.6-0.9c0.2-0.3,0.4-0.6,0.7-0.9c0.2-0.3,0.5-0.6,0.7-0.8c-0.4-0.6-0.8-1.2-1.2-1.8c-0.4-0.6-0.8-1.1-1.2-1.7
				h2.1L97.7,58.4z"/>
			<path d="M108.6,60c0,0.5-0.1,1-0.2,1.5c-0.1,0.4-0.3,0.8-0.6,1.1c-0.3,0.3-0.6,0.6-0.9,0.7c-0.4,0.2-0.8,0.3-1.3,0.3
				c-0.3,0-0.5,0-0.8-0.1c-0.2-0.1-0.5-0.1-0.7-0.2v2.6h-1.9v-9.1c0.2-0.1,0.4-0.1,0.6-0.2c0.2,0,0.5-0.1,0.7-0.1
				c0.2,0,0.5-0.1,0.8-0.1s0.5,0,0.7,0c0.6,0,1.1,0.1,1.5,0.3c0.4,0.2,0.8,0.4,1.1,0.7c0.3,0.3,0.5,0.7,0.7,1.1
				C108.5,58.9,108.6,59.4,108.6,60z M106.6,60c0-0.6-0.1-1.1-0.4-1.4c-0.3-0.4-0.7-0.5-1.2-0.5c-0.2,0-0.3,0-0.5,0
				c-0.1,0-0.3,0-0.4,0v3.5c0.1,0.1,0.3,0.1,0.5,0.2c0.2,0.1,0.4,0.1,0.6,0.1C106.1,61.9,106.6,61.2,106.6,60z"/>
			<path d="M109.7,60c0-0.6,0.1-1.1,0.3-1.6c0.2-0.5,0.4-0.8,0.7-1.1c0.3-0.3,0.7-0.5,1.1-0.7c0.4-0.2,0.8-0.2,1.2-0.2
				c1,0,1.7,0.3,2.3,0.9c0.6,0.6,0.8,1.5,0.8,2.6c0,0.1,0,0.2,0,0.4c0,0.1,0,0.3,0,0.4h-4.4c0,0.4,0.2,0.7,0.6,1
				c0.3,0.2,0.8,0.4,1.3,0.4c0.4,0,0.7,0,1.1-0.1c0.3-0.1,0.6-0.1,0.8-0.2l0.3,1.6c-0.1,0.1-0.2,0.1-0.4,0.2
				c-0.2,0.1-0.4,0.1-0.6,0.1c-0.2,0-0.4,0.1-0.7,0.1c-0.2,0-0.5,0-0.7,0c-0.6,0-1.2-0.1-1.6-0.3s-0.8-0.4-1.1-0.8
				c-0.3-0.3-0.5-0.7-0.7-1.1C109.8,61,109.7,60.5,109.7,60z M114.3,59.3c0-0.2,0-0.3-0.1-0.5c0-0.2-0.1-0.3-0.2-0.4
				c-0.1-0.1-0.2-0.2-0.4-0.3c-0.2-0.1-0.3-0.1-0.6-0.1c-0.2,0-0.4,0-0.6,0.1c-0.2,0.1-0.3,0.2-0.4,0.3c-0.1,0.1-0.2,0.3-0.2,0.4
				c-0.1,0.2-0.1,0.3-0.1,0.5H114.3z"/>
			<path d="M121.8,58.2c-0.2,0-0.4-0.1-0.6-0.1c-0.2,0-0.5-0.1-0.8-0.1c-0.1,0-0.3,0-0.4,0c-0.2,0-0.3,0-0.4,0.1v5.3h-1.9v-6.5
				c0.3-0.1,0.8-0.2,1.2-0.3c0.5-0.1,1-0.2,1.6-0.2c0.1,0,0.2,0,0.4,0c0.1,0,0.3,0,0.4,0.1c0.1,0,0.3,0,0.4,0.1
				c0.1,0,0.3,0.1,0.4,0.1L121.8,58.2z"/>
			<path d="M125.3,54.5c0,0.4-0.1,0.6-0.3,0.8c-0.2,0.2-0.5,0.3-0.8,0.3c-0.3,0-0.6-0.1-0.8-0.3c-0.2-0.2-0.3-0.5-0.3-0.8
				c0-0.4,0.1-0.6,0.3-0.8c0.2-0.2,0.5-0.3,0.8-0.3c0.3,0,0.6,0.1,0.8,0.3C125.2,53.9,125.3,54.2,125.3,54.5z M125.2,63.4h-1.9v-6.9
				h1.9V63.4z"/>
			<path d="M126.7,60c0-0.6,0.1-1.1,0.3-1.6c0.2-0.5,0.4-0.8,0.7-1.1c0.3-0.3,0.7-0.5,1.1-0.7c0.4-0.2,0.8-0.2,1.2-0.2
				c1,0,1.7,0.3,2.3,0.9c0.6,0.6,0.8,1.5,0.8,2.6c0,0.1,0,0.2,0,0.4c0,0.1,0,0.3,0,0.4h-4.4c0,0.4,0.2,0.7,0.6,1
				c0.3,0.2,0.8,0.4,1.3,0.4c0.4,0,0.7,0,1.1-0.1c0.3-0.1,0.6-0.1,0.8-0.2l0.3,1.6c-0.1,0.1-0.2,0.1-0.4,0.2
				c-0.2,0.1-0.4,0.1-0.6,0.1c-0.2,0-0.4,0.1-0.7,0.1c-0.2,0-0.5,0-0.7,0c-0.6,0-1.2-0.1-1.6-0.3s-0.8-0.4-1.1-0.8
				c-0.3-0.3-0.5-0.7-0.7-1.1C126.7,61,126.7,60.5,126.7,60z M131.2,59.3c0-0.2,0-0.3-0.1-0.5c0-0.2-0.1-0.3-0.2-0.4
				c-0.1-0.1-0.2-0.2-0.4-0.3c-0.2-0.1-0.3-0.1-0.6-0.1c-0.2,0-0.4,0-0.6,0.1c-0.2,0.1-0.3,0.2-0.4,0.3c-0.1,0.1-0.2,0.3-0.2,0.4
				c-0.1,0.2-0.1,0.3-0.1,0.5H131.2z"/>
			<path d="M134.6,56.8c0.3-0.1,0.8-0.2,1.3-0.3c0.5-0.1,1.1-0.1,1.6-0.1c0.6,0,1.1,0.1,1.5,0.2c0.4,0.2,0.7,0.4,0.9,0.6
				c0.2,0.3,0.4,0.6,0.5,1c0.1,0.4,0.1,0.8,0.1,1.3v3.9h-1.9v-3.6c0-0.6-0.1-1.1-0.2-1.3c-0.2-0.3-0.5-0.4-0.9-0.4
				c-0.1,0-0.3,0-0.4,0c-0.2,0-0.3,0-0.4,0v5.3h-1.9V56.8z"/>
			<path d="M142,60c0-0.5,0.1-1,0.2-1.4c0.2-0.4,0.4-0.8,0.7-1.1c0.3-0.3,0.7-0.6,1.1-0.8c0.4-0.2,0.9-0.3,1.5-0.3
				c0.4,0,0.7,0,1,0.1c0.3,0.1,0.6,0.2,0.9,0.3l-0.4,1.6c-0.2-0.1-0.4-0.1-0.6-0.2c-0.2-0.1-0.5-0.1-0.7-0.1c-0.6,0-1,0.2-1.3,0.5
				c-0.3,0.4-0.4,0.8-0.4,1.4c0,0.6,0.1,1.1,0.4,1.4c0.3,0.3,0.7,0.5,1.4,0.5c0.2,0,0.5,0,0.8-0.1c0.3,0,0.5-0.1,0.7-0.2l0.3,1.6
				c-0.2,0.1-0.5,0.2-0.8,0.2c-0.3,0.1-0.7,0.1-1.1,0.1c-0.6,0-1.2-0.1-1.6-0.3c-0.5-0.2-0.8-0.4-1.1-0.8c-0.3-0.3-0.5-0.7-0.6-1.1
				S142,60.5,142,60z"/>
			<path d="M148.2,60c0-0.6,0.1-1.1,0.3-1.6s0.4-0.8,0.7-1.1c0.3-0.3,0.7-0.5,1.1-0.7c0.4-0.2,0.8-0.2,1.2-0.2c1,0,1.7,0.3,2.3,0.9
				c0.6,0.6,0.8,1.5,0.8,2.6c0,0.1,0,0.2,0,0.4c0,0.1,0,0.3,0,0.4h-4.4c0,0.4,0.2,0.7,0.6,1c0.3,0.2,0.8,0.4,1.3,0.4
				c0.4,0,0.7,0,1.1-0.1c0.3-0.1,0.6-0.1,0.8-0.2l0.3,1.6c-0.1,0.1-0.2,0.1-0.4,0.2c-0.2,0.1-0.4,0.1-0.6,0.1
				c-0.2,0-0.4,0.1-0.7,0.1c-0.2,0-0.5,0-0.7,0c-0.6,0-1.2-0.1-1.6-0.3s-0.8-0.4-1.1-0.8c-0.3-0.3-0.5-0.7-0.7-1.1
				C148.3,61,148.2,60.5,148.2,60z M152.8,59.3c0-0.2,0-0.3-0.1-0.5c0-0.2-0.1-0.3-0.2-0.4c-0.1-0.1-0.2-0.2-0.4-0.3
				c-0.2-0.1-0.3-0.1-0.6-0.1c-0.2,0-0.4,0-0.6,0.1c-0.2,0.1-0.3,0.2-0.4,0.3c-0.1,0.1-0.2,0.3-0.2,0.4c-0.1,0.2-0.1,0.3-0.1,0.5
				H152.8z"/>
		</g>
	</g>
	<g>
		<path d="M12.1,79.1c0.7,0,1.2,0.2,1.6,0.5c0.4,0.3,0.6,0.8,0.6,1.5v3.7h-1.1L12.8,84h0c-0.1,0.2-0.3,0.4-0.5,0.5
			c-0.2,0.1-0.3,0.2-0.5,0.3c-0.2,0.1-0.4,0.1-0.7,0.1c-0.3,0-0.6-0.1-0.8-0.2c-0.2-0.1-0.4-0.3-0.6-0.6s-0.2-0.6-0.2-1
			c0-0.6,0.2-1,0.6-1.3c0.4-0.3,1-0.4,1.7-0.5l0.9,0V81c0-0.3-0.1-0.5-0.2-0.6c-0.1-0.1-0.3-0.2-0.5-0.2c-0.2,0-0.5,0-0.7,0.1
			c-0.2,0.1-0.5,0.2-0.7,0.3l-0.5-1c0.3-0.2,0.6-0.3,1-0.4C11.3,79.1,11.7,79.1,12.1,79.1z M12.2,82.2c-0.4,0-0.7,0.1-0.8,0.3
			s-0.2,0.4-0.2,0.6c0,0.2,0.1,0.4,0.2,0.5s0.3,0.1,0.4,0.1c0.3,0,0.5-0.1,0.7-0.3c0.2-0.2,0.3-0.5,0.3-0.8v-0.5L12.2,82.2z"/>
		<path d="M21,84.7h-1.6v-6h-1.8v-1.3h5.1v1.3H21V84.7z"/>
		<path d="M25.2,79.1c0.5,0,0.9,0.1,1.3,0.3c0.4,0.2,0.6,0.5,0.8,0.8c0.2,0.4,0.3,0.8,0.3,1.4v0.7h-3.3c0,0.4,0.1,0.8,0.3,1
			c0.2,0.2,0.5,0.4,0.9,0.4c0.3,0,0.6,0,0.9-0.1c0.3-0.1,0.6-0.2,0.8-0.3v1.2c-0.2,0.1-0.5,0.2-0.8,0.3c-0.3,0.1-0.7,0.1-1.1,0.1
			c-0.5,0-1-0.1-1.4-0.3c-0.4-0.2-0.7-0.5-1-0.9c-0.2-0.4-0.3-0.9-0.3-1.6c0-0.6,0.1-1.2,0.3-1.6s0.5-0.8,0.9-1S24.7,79.1,25.2,79.1
			z M25.3,80.2c-0.2,0-0.4,0.1-0.6,0.3c-0.2,0.2-0.3,0.5-0.3,0.9h1.8c0-0.2,0-0.4-0.1-0.6c-0.1-0.2-0.2-0.3-0.3-0.4
			C25.6,80.2,25.5,80.2,25.3,80.2z"/>
		<path d="M30.3,84.7h-1.6V77h1.6V84.7z"/>
		<path d="M34,79.1c0.5,0,0.9,0.1,1.3,0.3c0.4,0.2,0.6,0.5,0.8,0.8c0.2,0.4,0.3,0.8,0.3,1.4v0.7h-3.3c0,0.4,0.1,0.8,0.3,1
			c0.2,0.2,0.5,0.4,0.9,0.4c0.3,0,0.6,0,0.9-0.1c0.3-0.1,0.6-0.2,0.8-0.3v1.2c-0.2,0.1-0.5,0.2-0.8,0.3c-0.3,0.1-0.7,0.1-1.1,0.1
			c-0.5,0-1-0.1-1.4-0.3c-0.4-0.2-0.7-0.5-1-0.9c-0.2-0.4-0.3-0.9-0.3-1.6c0-0.6,0.1-1.2,0.3-1.6s0.5-0.8,0.9-1S33.5,79.1,34,79.1z
			 M34,80.2c-0.2,0-0.4,0.1-0.6,0.3c-0.2,0.2-0.3,0.5-0.3,0.9h1.8c0-0.2,0-0.4-0.1-0.6c-0.1-0.2-0.2-0.3-0.3-0.4
			C34.4,80.2,34.2,80.2,34,80.2z"/>
		<path d="M40.5,79.1c0.6,0,1,0.2,1.4,0.7s0.5,1.2,0.5,2.1c0,0.6-0.1,1.2-0.3,1.6c-0.2,0.4-0.4,0.8-0.7,1s-0.6,0.3-1,0.3
			c-0.2,0-0.5,0-0.6-0.1s-0.3-0.2-0.4-0.3c-0.1-0.1-0.2-0.2-0.3-0.3H39c0,0.1,0,0.3,0.1,0.4c0,0.1,0,0.3,0,0.4v2.2h-1.6v-8h1.3
			l0.2,0.7h0.1c0.1-0.1,0.2-0.3,0.3-0.4c0.1-0.1,0.3-0.2,0.5-0.3S40.3,79.1,40.5,79.1z M40,80.3c-0.2,0-0.4,0.1-0.5,0.2
			c-0.1,0.1-0.2,0.3-0.3,0.5c-0.1,0.2-0.1,0.5-0.1,0.8V82c0,0.4,0,0.7,0.1,0.9c0.1,0.2,0.1,0.4,0.3,0.6c0.1,0.1,0.3,0.2,0.5,0.2
			c0.2,0,0.3-0.1,0.5-0.2c0.1-0.1,0.2-0.3,0.3-0.6c0.1-0.2,0.1-0.6,0.1-0.9c0-0.5-0.1-0.9-0.2-1.2C40.4,80.4,40.2,80.3,40,80.3z"/>
		<path d="M45.8,79.1c0.5,0,0.9,0.1,1.3,0.3c0.4,0.2,0.6,0.5,0.8,0.8c0.2,0.4,0.3,0.8,0.3,1.4v0.7h-3.3c0,0.4,0.1,0.8,0.3,1
			c0.2,0.2,0.5,0.4,0.9,0.4c0.3,0,0.6,0,0.9-0.1c0.3-0.1,0.6-0.2,0.8-0.3v1.2c-0.2,0.1-0.5,0.2-0.8,0.3c-0.3,0.1-0.7,0.1-1.1,0.1
			c-0.5,0-1-0.1-1.4-0.3c-0.4-0.2-0.7-0.5-1-0.9c-0.2-0.4-0.3-0.9-0.3-1.6c0-0.6,0.1-1.2,0.3-1.6s0.5-0.8,0.9-1S45.3,79.1,45.8,79.1
			z M45.8,80.2c-0.2,0-0.4,0.1-0.6,0.3c-0.2,0.2-0.3,0.5-0.3,0.9h1.8c0-0.2,0-0.4-0.1-0.6c-0.1-0.2-0.2-0.3-0.3-0.4
			C46.2,80.2,46,80.2,45.8,80.2z"/>
		<path d="M52.3,79.1c0.1,0,0.2,0,0.3,0c0.1,0,0.2,0,0.2,0l-0.1,1.4c-0.1,0-0.1,0-0.2,0c-0.1,0-0.2,0-0.3,0c-0.1,0-0.3,0-0.5,0.1
			s-0.3,0.1-0.4,0.2c-0.1,0.1-0.2,0.3-0.3,0.4c-0.1,0.2-0.1,0.4-0.1,0.7v2.8h-1.6v-5.5h1.2l0.2,0.9h0.1c0.1-0.2,0.2-0.4,0.4-0.5
			s0.3-0.3,0.5-0.4C51.9,79.2,52.1,79.1,52.3,79.1z"/>
		<path d="M56.7,80.3h-1.2v4.4h-1.6v-4.4h-0.7v-0.7l0.8-0.4v-0.4c0-0.5,0.1-0.8,0.2-1.1c0.1-0.3,0.3-0.4,0.6-0.6
			c0.3-0.1,0.6-0.2,1-0.2c0.3,0,0.5,0,0.7,0.1c0.2,0,0.4,0.1,0.6,0.2l-0.4,1.1c-0.1,0-0.2-0.1-0.3-0.1c-0.1,0-0.2,0-0.4,0
			c-0.2,0-0.3,0.1-0.4,0.2s-0.1,0.3-0.1,0.5v0.3h1.2V80.3z"/>
		<path d="M62.4,82c0,0.5-0.1,0.9-0.2,1.2c-0.1,0.4-0.3,0.7-0.5,0.9s-0.5,0.4-0.8,0.6c-0.3,0.1-0.7,0.2-1.1,0.2
			c-0.4,0-0.7-0.1-1-0.2c-0.3-0.1-0.6-0.3-0.8-0.6c-0.2-0.2-0.4-0.5-0.5-0.9c-0.1-0.4-0.2-0.8-0.2-1.2c0-0.6,0.1-1.1,0.3-1.6
			c0.2-0.4,0.5-0.7,0.9-1s0.8-0.3,1.4-0.3c0.5,0,0.9,0.1,1.3,0.3c0.4,0.2,0.7,0.5,0.9,1C62.3,80.8,62.4,81.3,62.4,82z M58.9,82
			c0,0.4,0,0.7,0.1,0.9c0.1,0.2,0.2,0.4,0.3,0.6s0.3,0.2,0.5,0.2s0.4-0.1,0.5-0.2c0.1-0.1,0.2-0.3,0.3-0.6s0.1-0.6,0.1-0.9
			s0-0.7-0.1-0.9c-0.1-0.2-0.2-0.4-0.3-0.5c-0.1-0.1-0.3-0.2-0.5-0.2c-0.3,0-0.6,0.1-0.7,0.4S58.9,81.4,58.9,82z"/>
		<path d="M66.5,79.1c0.1,0,0.2,0,0.3,0c0.1,0,0.2,0,0.2,0l-0.1,1.4c-0.1,0-0.1,0-0.2,0c-0.1,0-0.2,0-0.3,0c-0.1,0-0.3,0-0.5,0.1
			s-0.3,0.1-0.4,0.2c-0.1,0.1-0.2,0.3-0.3,0.4c-0.1,0.2-0.1,0.4-0.1,0.7v2.8h-1.6v-5.5h1.2l0.2,0.9H65c0.1-0.2,0.2-0.4,0.4-0.5
			s0.3-0.3,0.5-0.4C66.1,79.2,66.3,79.1,66.5,79.1z"/>
		<path d="M74.1,79.1c0.6,0,1.1,0.2,1.4,0.5s0.5,0.8,0.5,1.5v3.6h-1.6v-3.2c0-0.4-0.1-0.7-0.2-0.9c-0.1-0.2-0.3-0.3-0.5-0.3
			c-0.3,0-0.6,0.1-0.7,0.4c-0.1,0.3-0.2,0.7-0.2,1.2v2.8h-1.6v-3.2c0-0.3,0-0.5-0.1-0.7c-0.1-0.2-0.1-0.3-0.2-0.4
			c-0.1-0.1-0.2-0.1-0.4-0.1c-0.2,0-0.4,0.1-0.6,0.2c-0.1,0.1-0.2,0.3-0.3,0.6c-0.1,0.3-0.1,0.6-0.1,1v2.6h-1.6v-5.5h1.2l0.2,0.7
			h0.1c0.1-0.2,0.2-0.3,0.4-0.5s0.3-0.2,0.5-0.3c0.2-0.1,0.4-0.1,0.6-0.1c0.4,0,0.7,0.1,1,0.2c0.3,0.1,0.5,0.3,0.6,0.6h0.1
			c0.2-0.3,0.4-0.5,0.7-0.6C73.5,79.2,73.8,79.1,74.1,79.1z"/>
		<path d="M79.6,79.1c0.7,0,1.2,0.2,1.6,0.5c0.4,0.3,0.6,0.8,0.6,1.5v3.7h-1.1L80.3,84h0c-0.1,0.2-0.3,0.4-0.5,0.5
			c-0.2,0.1-0.3,0.2-0.5,0.3c-0.2,0.1-0.4,0.1-0.7,0.1c-0.3,0-0.6-0.1-0.8-0.2c-0.2-0.1-0.4-0.3-0.6-0.6s-0.2-0.6-0.2-1
			c0-0.6,0.2-1,0.6-1.3c0.4-0.3,1-0.4,1.7-0.5l0.9,0V81c0-0.3-0.1-0.5-0.2-0.6c-0.1-0.1-0.3-0.2-0.5-0.2c-0.2,0-0.5,0-0.7,0.1
			c-0.2,0.1-0.5,0.2-0.7,0.3l-0.5-1c0.3-0.2,0.6-0.3,1-0.4C78.8,79.1,79.2,79.1,79.6,79.1z M79.7,82.2c-0.4,0-0.7,0.1-0.8,0.3
			s-0.2,0.4-0.2,0.6c0,0.2,0.1,0.4,0.2,0.5s0.3,0.1,0.4,0.1c0.3,0,0.5-0.1,0.7-0.3c0.2-0.2,0.3-0.5,0.3-0.8v-0.5L79.7,82.2z"/>
		<path d="M86.2,79.1c0.6,0,1,0.2,1.3,0.5c0.3,0.3,0.5,0.8,0.5,1.5v3.6h-1.6v-3.2c0-0.4-0.1-0.7-0.2-0.9c-0.1-0.2-0.3-0.3-0.6-0.3
			c-0.4,0-0.7,0.2-0.8,0.5c-0.1,0.3-0.2,0.8-0.2,1.4v2.6h-1.6v-5.5h1.2l0.2,0.7h0.1c0.1-0.2,0.3-0.3,0.4-0.5
			c0.2-0.1,0.3-0.2,0.5-0.3C85.8,79.1,86,79.1,86.2,79.1z"/>
		<path d="M91.7,84.8c-0.5,0-1-0.1-1.4-0.3s-0.7-0.5-0.9-0.9c-0.2-0.4-0.3-1-0.3-1.6c0-0.7,0.1-1.2,0.3-1.7s0.5-0.7,0.9-0.9
			c0.4-0.2,0.9-0.3,1.4-0.3c0.3,0,0.7,0,0.9,0.1s0.5,0.2,0.7,0.3L93,80.6c-0.2-0.1-0.4-0.2-0.6-0.2c-0.2-0.1-0.3-0.1-0.5-0.1
			c-0.2,0-0.4,0.1-0.6,0.2c-0.2,0.1-0.3,0.3-0.4,0.6s-0.1,0.6-0.1,0.9c0,0.4,0,0.7,0.1,0.9c0.1,0.2,0.2,0.4,0.4,0.5
			c0.2,0.1,0.4,0.2,0.6,0.2c0.3,0,0.5,0,0.7-0.1s0.5-0.2,0.7-0.3v1.3c-0.2,0.1-0.5,0.3-0.7,0.3C92.4,84.8,92.1,84.8,91.7,84.8z"/>
		<path d="M96.7,79.1c0.5,0,0.9,0.1,1.3,0.3c0.4,0.2,0.6,0.5,0.8,0.8c0.2,0.4,0.3,0.8,0.3,1.4v0.7h-3.3c0,0.4,0.1,0.8,0.3,1
			c0.2,0.2,0.5,0.4,0.9,0.4c0.3,0,0.6,0,0.9-0.1c0.3-0.1,0.6-0.2,0.8-0.3v1.2c-0.2,0.1-0.5,0.2-0.8,0.3c-0.3,0.1-0.7,0.1-1.1,0.1
			c-0.5,0-1-0.1-1.4-0.3c-0.4-0.2-0.7-0.5-1-0.9c-0.2-0.4-0.3-0.9-0.3-1.6c0-0.6,0.1-1.2,0.3-1.6s0.5-0.8,0.9-1S96.2,79.1,96.7,79.1
			z M96.7,80.2c-0.2,0-0.4,0.1-0.6,0.3c-0.2,0.2-0.3,0.5-0.3,0.9h1.8c0-0.2,0-0.4-0.1-0.6c-0.1-0.2-0.2-0.3-0.3-0.4
			C97.1,80.2,96.9,80.2,96.7,80.2z"/>
		<path d="M105.7,78.7c-0.2,0-0.5,0.1-0.7,0.2c-0.2,0.1-0.4,0.3-0.5,0.5c-0.1,0.2-0.2,0.5-0.3,0.8c-0.1,0.3-0.1,0.6-0.1,1
			c0,0.5,0.1,0.9,0.2,1.3c0.1,0.4,0.3,0.6,0.5,0.8c0.2,0.2,0.5,0.3,0.9,0.3c0.3,0,0.6,0,0.9-0.1c0.3-0.1,0.6-0.2,0.9-0.3v1.3
			c-0.3,0.1-0.6,0.2-0.9,0.3c-0.3,0.1-0.6,0.1-1,0.1c-0.7,0-1.3-0.2-1.8-0.5c-0.5-0.3-0.8-0.7-1-1.3s-0.3-1.2-0.3-1.9
			c0-0.5,0.1-1,0.2-1.5c0.1-0.5,0.4-0.8,0.6-1.2c0.3-0.3,0.6-0.6,1-0.8c0.4-0.2,0.9-0.3,1.4-0.3c0.3,0,0.7,0,1.1,0.1s0.7,0.2,1,0.4
			l-0.5,1.2c-0.2-0.1-0.5-0.2-0.8-0.3C106.3,78.7,106,78.7,105.7,78.7z"/>
		<path d="M113.6,82c0,0.5-0.1,0.9-0.2,1.2c-0.1,0.4-0.3,0.7-0.5,0.9s-0.5,0.4-0.8,0.6c-0.3,0.1-0.7,0.2-1.1,0.2
			c-0.4,0-0.7-0.1-1-0.2c-0.3-0.1-0.6-0.3-0.8-0.6c-0.2-0.2-0.4-0.5-0.5-0.9c-0.1-0.4-0.2-0.8-0.2-1.2c0-0.6,0.1-1.1,0.3-1.6
			c0.2-0.4,0.5-0.7,0.9-1s0.8-0.3,1.4-0.3c0.5,0,0.9,0.1,1.3,0.3c0.4,0.2,0.7,0.5,0.9,1C113.5,80.8,113.6,81.3,113.6,82z M110.2,82
			c0,0.4,0,0.7,0.1,0.9c0.1,0.2,0.2,0.4,0.3,0.6s0.3,0.2,0.5,0.2s0.4-0.1,0.5-0.2c0.1-0.1,0.2-0.3,0.3-0.6s0.1-0.6,0.1-0.9
			s0-0.7-0.1-0.9c-0.1-0.2-0.2-0.4-0.3-0.5c-0.1-0.1-0.3-0.2-0.5-0.2c-0.3,0-0.6,0.1-0.7,0.4S110.2,81.4,110.2,82z"/>
		<path d="M121,79.1c0.6,0,1.1,0.2,1.4,0.5s0.5,0.8,0.5,1.5v3.6h-1.6v-3.2c0-0.4-0.1-0.7-0.2-0.9c-0.1-0.2-0.3-0.3-0.5-0.3
			c-0.3,0-0.6,0.1-0.7,0.4c-0.1,0.3-0.2,0.7-0.2,1.2v2.8H118v-3.2c0-0.3,0-0.5-0.1-0.7c-0.1-0.2-0.1-0.3-0.2-0.4
			c-0.1-0.1-0.2-0.1-0.4-0.1c-0.2,0-0.4,0.1-0.6,0.2c-0.1,0.1-0.2,0.3-0.3,0.6c-0.1,0.3-0.1,0.6-0.1,1v2.6h-1.6v-5.5h1.2l0.2,0.7
			h0.1c0.1-0.2,0.2-0.3,0.4-0.5s0.3-0.2,0.5-0.3c0.2-0.1,0.4-0.1,0.6-0.1c0.4,0,0.7,0.1,1,0.2c0.3,0.1,0.5,0.3,0.6,0.6h0.1
			c0.2-0.3,0.4-0.5,0.7-0.6C120.4,79.2,120.7,79.1,121,79.1z"/>
		<path d="M127.2,79.1c0.6,0,1,0.2,1.4,0.7s0.5,1.2,0.5,2.1c0,0.6-0.1,1.2-0.3,1.6c-0.2,0.4-0.4,0.8-0.7,1s-0.6,0.3-1,0.3
			c-0.2,0-0.5,0-0.6-0.1s-0.3-0.2-0.4-0.3c-0.1-0.1-0.2-0.2-0.3-0.3h-0.1c0,0.1,0,0.3,0.1,0.4c0,0.1,0,0.3,0,0.4v2.2h-1.6v-8h1.3
			l0.2,0.7h0.1c0.1-0.1,0.2-0.3,0.3-0.4c0.1-0.1,0.3-0.2,0.5-0.3S127,79.1,127.2,79.1z M126.7,80.3c-0.2,0-0.4,0.1-0.5,0.2
			c-0.1,0.1-0.2,0.3-0.3,0.5c-0.1,0.2-0.1,0.5-0.1,0.8V82c0,0.4,0,0.7,0.1,0.9c0.1,0.2,0.1,0.4,0.3,0.6c0.1,0.1,0.3,0.2,0.5,0.2
			c0.2,0,0.3-0.1,0.5-0.2c0.1-0.1,0.2-0.3,0.3-0.6c0.1-0.2,0.1-0.6,0.1-0.9c0-0.5-0.1-0.9-0.2-1.2C127.1,80.4,126.9,80.3,126.7,80.3
			z"/>
		<path d="M132.6,79.1c0.7,0,1.2,0.2,1.6,0.5c0.4,0.3,0.6,0.8,0.6,1.5v3.7h-1.1l-0.3-0.7h0c-0.1,0.2-0.3,0.4-0.5,0.5
			c-0.2,0.1-0.3,0.2-0.5,0.3c-0.2,0.1-0.4,0.1-0.7,0.1c-0.3,0-0.6-0.1-0.8-0.2c-0.2-0.1-0.4-0.3-0.6-0.6s-0.2-0.6-0.2-1
			c0-0.6,0.2-1,0.6-1.3c0.4-0.3,1-0.4,1.7-0.5l0.9,0V81c0-0.3-0.1-0.5-0.2-0.6c-0.1-0.1-0.3-0.2-0.5-0.2c-0.2,0-0.5,0-0.7,0.1
			c-0.2,0.1-0.5,0.2-0.7,0.3l-0.5-1c0.3-0.2,0.6-0.3,1-0.4C131.8,79.1,132.2,79.1,132.6,79.1z M132.6,82.2c-0.4,0-0.7,0.1-0.8,0.3
			s-0.2,0.4-0.2,0.6c0,0.2,0.1,0.4,0.2,0.5s0.3,0.1,0.4,0.1c0.3,0,0.5-0.1,0.7-0.3c0.2-0.2,0.3-0.5,0.3-0.8v-0.5L132.6,82.2z"/>
		<path d="M139.2,79.1c0.6,0,1,0.2,1.3,0.5s0.5,0.8,0.5,1.5v3.6h-1.6v-3.2c0-0.4-0.1-0.7-0.2-0.9c-0.1-0.2-0.3-0.3-0.6-0.3
			c-0.4,0-0.7,0.2-0.8,0.5c-0.1,0.3-0.2,0.8-0.2,1.4v2.6h-1.6v-5.5h1.2l0.2,0.7h0.1c0.1-0.2,0.3-0.3,0.4-0.5
			c0.2-0.1,0.3-0.2,0.5-0.3C138.8,79.1,139,79.1,139.2,79.1z"/>
		<path d="M141.7,79.2h1.7l0.9,3.1c0,0.1,0.1,0.2,0.1,0.3s0,0.2,0,0.3c0,0.1,0,0.2,0,0.3h0c0-0.2,0-0.3,0.1-0.5
			c0-0.2,0.1-0.3,0.1-0.5l0.9-3.1h1.7l-2.2,6.2c-0.1,0.4-0.3,0.7-0.5,1c-0.2,0.3-0.5,0.4-0.8,0.6c-0.3,0.1-0.6,0.2-1,0.2
			c-0.2,0-0.3,0-0.4,0c-0.1,0-0.2,0-0.3-0.1v-1.2c0.1,0,0.1,0,0.2,0c0.1,0,0.2,0,0.3,0c0.2,0,0.4,0,0.5-0.1s0.2-0.2,0.3-0.4
			s0.2-0.3,0.2-0.5l0.1-0.3L141.7,79.2z"/>
	</g>
	<line class="st14" x1="8.7" y1="71" x2="154.6" y2="71"/>
</g>
</svg>
